<svg width="360" height="1733" viewBox="0 0 360 1733" fill="none" xmlns="http://www.w3.org/2000/svg">
<g opacity="0.2">
<line x1="430.125" y1="0.530624" x2="-75.0002" y2="0.53058" stroke="white" stroke-width="1.06119"/>
<line x1="430.125" y1="144.852" x2="-75.0002" y2="144.852" stroke="white" stroke-width="1.06119"/>
<line x1="430.125" y1="289.174" x2="-75.0002" y2="289.174" stroke="white" stroke-width="1.06119"/>
<line x1="430.125" y1="433.495" x2="-75.0002" y2="433.495" stroke="white" stroke-width="1.06119"/>
<line x1="430.125" y1="577.817" x2="-75.0002" y2="577.817" stroke="white" stroke-width="1.06119"/>
<line x1="430.125" y1="577.817" x2="-75.0002" y2="577.817" stroke="white" stroke-width="1.06119"/>
<line x1="430.125" y1="722.138" x2="-75.0002" y2="722.138" stroke="white" stroke-width="1.06119"/>
<line x1="430.125" y1="866.46" x2="-75.0002" y2="866.46" stroke="white" stroke-width="1.06119"/>
<line x1="430.125" y1="1010.78" x2="-75.0002" y2="1010.78" stroke="white" stroke-width="1.06119"/>
<line x1="430.125" y1="1155.1" x2="-75.0002" y2="1155.1" stroke="white" stroke-width="1.06119"/>
<line x1="430.125" y1="1155.1" x2="-75.0002" y2="1155.1" stroke="white" stroke-width="1.06119"/>
<line x1="430.125" y1="1299.42" x2="-75.0002" y2="1299.42" stroke="white" stroke-width="1.06119"/>
<line x1="430.125" y1="1443.75" x2="-75.0002" y2="1443.75" stroke="white" stroke-width="1.06119"/>
<line x1="430.125" y1="1588.07" x2="-75.0002" y2="1588.07" stroke="white" stroke-width="1.06119"/>
<line x1="430.125" y1="1732.39" x2="-75.0002" y2="1732.39" stroke="white" stroke-width="1.06119"/>
<line x1="308.619" y1="1358.32" x2="308.619" y2="-2.3193e-08" stroke="white" stroke-width="1.06119"/>
<line x1="177.031" y1="1358.32" x2="177.031" y2="-2.3193e-08" stroke="white" stroke-width="1.06119"/>
<line x1="45.4445" y1="1358.32" x2="45.4446" y2="-2.3193e-08" stroke="white" stroke-width="1.06119"/>
</g>
</svg>
