<svg width="400" height="400" viewBox="0 0 400 400" fill="none" xmlns="http://www.w3.org/2000/svg">
<circle cx="200" cy="200.252" r="42" fill="#EAFE01"/>
<path d="M285.495 199.747C285.495 176.276 266.471 157.252 243 157.252L243 242.242C266.471 242.242 285.495 223.218 285.495 199.747Z" fill="#EAFE01"/>
<path d="M200.495 285.747C223.966 285.747 242.99 266.724 242.99 243.253L158 243.253C158 266.724 177.024 285.747 200.495 285.747Z" fill="#EAFE01"/>
<path d="M200.495 115.252C177.024 115.252 158 134.276 158 157.747H242.99C242.99 134.276 223.966 115.252 200.495 115.252Z" fill="#EAFE01"/>
<path d="M115 199.747C115 223.218 134.024 242.242 157.495 242.242L157.495 157.252C134.024 157.252 115 176.276 115 199.747Z" fill="#EAFE01"/>
</svg>
