<svg width="400" height="400" viewBox="0 0 400 400" fill="none" xmlns="http://www.w3.org/2000/svg">
<circle cx="200" cy="200.252" r="42" fill="#EAFE01"/>
<path d="M285.495 199.747C285.495 176.276 266.471 157.252 243 157.252L243 242.242C266.471 242.242 285.495 223.218 285.495 199.747Z" fill="#EAFE01"/>
<path d="M200.495 285.747C223.966 285.747 242.99 266.724 242.99 243.253L158 243.253C158 266.724 177.024 285.747 200.495 285.747Z" fill="#EAFE01"/>
<path d="M200.495 115.252C177.024 115.252 158 134.276 158 157.747H242.99C242.99 134.276 223.966 115.252 200.495 115.252Z" fill="#EAFE01"/>
<path d="M328.495 157.747C328.495 134.276 309.471 115.252 286 115.252L286 200.242C309.471 200.242 328.495 181.218 328.495 157.747Z" fill="#EAFE01"/>
<path d="M371.495 114.747C371.495 91.2762 352.471 72.2524 329 72.2524L329 157.242C352.471 157.242 371.495 138.218 371.495 114.747Z" fill="#EAFE01"/>
<path d="M285.495 371.747C308.966 371.747 327.99 352.724 327.99 329.253L243 329.253C243 352.724 262.024 371.747 285.495 371.747Z" fill="#EAFE01"/>
<path d="M29 286.747C29 310.218 48.0238 329.242 71.4948 329.242L71.4948 244.252C48.0238 244.252 29 263.276 29 286.747Z" fill="#EAFE01"/>
<path d="M115.495 28.2524C92.0238 28.2524 73 47.2762 73 70.7472L157.99 70.7473C157.99 47.2762 138.966 28.2525 115.495 28.2524Z" fill="#EAFE01"/>
<path d="M242.495 328.747C265.966 328.747 284.99 309.724 284.99 286.253L200 286.253C200 309.724 219.024 328.747 242.495 328.747Z" fill="#EAFE01"/>
<path d="M157.495 72.2524C134.024 72.2524 115 91.2762 115 114.747L199.99 114.747C199.99 91.2762 180.966 72.2524 157.495 72.2524Z" fill="#EAFE01"/>
<path d="M72 243.747C72 267.218 91.0238 286.242 114.495 286.242L114.495 201.252C91.0238 201.252 72 220.276 72 243.747Z" fill="#EAFE01"/>
<path d="M328.495 242.747C328.495 219.276 309.471 200.252 286 200.252L286 285.242C309.471 285.242 328.495 266.218 328.495 242.747Z" fill="#EAFE01"/>
<path d="M371.495 199.747C371.495 176.276 352.471 157.252 329 157.252L329 242.242C352.471 242.242 371.495 223.218 371.495 199.747Z" fill="#EAFE01"/>
<path d="M200.495 371.747C223.966 371.747 242.99 352.724 242.99 329.253L158 329.253C158 352.724 177.024 371.747 200.495 371.747Z" fill="#EAFE01"/>
<path d="M29 201.747C29 225.218 48.0238 244.242 71.4948 244.242L71.4948 159.252C48.0238 159.252 29 178.276 29 201.747Z" fill="#EAFE01"/>
<path d="M200.495 28.2524C177.024 28.2524 158 47.2762 158 70.7472L242.99 70.7473C242.99 47.2762 223.966 28.2525 200.495 28.2524Z" fill="#EAFE01"/>
<path d="M371.495 284.747C371.495 261.276 352.471 242.252 329 242.252L329 327.242C352.471 327.242 371.495 308.218 371.495 284.747Z" fill="#EAFE01"/>
<path d="M115.495 371.747C138.966 371.747 157.99 352.724 157.99 329.253L73.0002 329.253C73.0002 352.724 92.0239 371.747 115.495 371.747Z" fill="#EAFE01"/>
<path d="M29 116.747C29 140.218 48.0238 159.242 71.4948 159.242L71.4948 74.2524C48.0238 74.2524 29 93.2761 29 116.747Z" fill="#EAFE01"/>
<path d="M285.495 28.2524C262.024 28.2524 243 47.2762 243 70.7472L327.99 70.7473C327.99 47.2762 308.966 28.2525 285.495 28.2524Z" fill="#EAFE01"/>
<path d="M157.495 328.747C180.966 328.747 199.99 309.724 199.99 286.253L115 286.253C115 309.724 134.024 328.747 157.495 328.747Z" fill="#EAFE01"/>
<path d="M242.495 72.2524C219.024 72.2524 200 91.2762 200 114.747L284.99 114.747C284.99 91.2762 265.966 72.2524 242.495 72.2524Z" fill="#EAFE01"/>
<path d="M72 158.747C72 182.218 91.0238 201.242 114.495 201.242L114.495 116.252C91.0238 116.252 72 135.276 72 158.747Z" fill="#EAFE01"/>
<path d="M115 199.747C115 223.218 134.024 242.242 157.495 242.242L157.495 157.252C134.024 157.252 115 176.276 115 199.747Z" fill="#EAFE01"/>
</svg>
