<svg width="3397" height="180" viewBox="0 0 3397 180" fill="none" xmlns="http://www.w3.org/2000/svg">
<g clip-path="url(#clip0_991_126)">
<rect width="3397.1" height="181" transform="translate(0 -1)" fill="#EAFE01"/>
<path d="M63.7413 36.7391V141.375H48.1513V52.6101H47.449L22.5892 68.9726V53.8039L48.5726 36.7391H63.7413ZM114.444 142.78C107.141 142.78 100.68 141.515 95.0618 138.987C89.4906 136.459 85.1132 132.995 81.9297 128.594C78.793 124.146 77.2246 119.09 77.2246 113.425C77.2246 109.071 78.1375 105.022 79.9634 101.276C81.8361 97.5309 84.3642 94.4176 87.5477 91.9363C90.7313 89.455 94.3128 87.8632 98.2922 87.161V86.529C93.0955 85.2649 88.9054 82.4793 85.7219 78.1721C82.5851 73.8182 81.0168 68.8556 81.0168 63.2844C81.0168 57.9004 82.4447 53.1017 85.3005 48.8881C88.2032 44.6746 92.1592 41.374 97.1686 38.9864C102.225 36.5519 107.983 35.3346 114.444 35.3346C120.811 35.3346 126.499 36.5519 131.509 38.9864C136.565 41.374 140.521 44.6746 143.377 48.8881C146.28 53.1017 147.731 57.9004 147.731 63.2844C147.731 68.8556 146.139 73.8182 142.956 78.1721C139.819 82.4793 135.699 85.2649 130.596 86.529V87.161C134.529 87.8632 138.087 89.455 141.27 91.9363C144.454 94.4176 146.982 97.5309 148.854 101.276C150.727 105.022 151.664 109.071 151.664 113.425C151.664 119.09 150.072 124.146 146.888 128.594C143.705 132.995 139.304 136.459 133.686 138.987C128.115 141.515 121.701 142.78 114.444 142.78ZM114.444 129.858C118.751 129.858 122.497 129.156 125.68 127.751C128.864 126.3 131.322 124.263 133.054 121.642C134.786 119.02 135.652 115.977 135.652 112.512C135.652 108.861 134.716 105.654 132.843 102.891C131.017 100.082 128.513 97.8821 125.329 96.2903C122.145 94.6517 118.517 93.8324 114.444 93.8324C110.324 93.8324 106.649 94.6283 103.419 96.2201C100.235 97.8118 97.7304 100.012 95.9045 102.821C94.0787 105.63 93.1657 108.861 93.1657 112.512C93.1657 115.977 94.0319 119.02 95.7641 121.642C97.4963 124.263 99.9542 126.3 103.138 127.751C106.321 129.156 110.09 129.858 114.444 129.858ZM114.444 81.2621C117.908 81.2621 120.975 80.5598 123.644 79.1553C126.359 77.7508 128.489 75.8079 130.034 73.3266C131.626 70.8453 132.422 67.9426 132.422 64.6186C132.422 61.3414 131.649 58.4856 130.104 56.0511C128.606 53.6167 126.499 51.7206 123.784 50.3629C121.115 49.0052 118.002 48.3263 114.444 48.3263C110.839 48.3263 107.679 49.0052 104.964 50.3629C102.248 51.7206 100.141 53.6167 98.6433 56.0511C97.1452 58.4856 96.3961 61.3414 96.3961 64.6186C96.3961 67.9426 97.1686 70.8453 98.7136 73.3266C100.259 75.8079 102.365 77.7508 105.034 79.1553C107.749 80.5598 110.886 81.2621 114.444 81.2621ZM194.712 134.704V65.672H208.406V134.704H194.712ZM166.973 107.105V93.2706H236.074V107.105H166.973Z" fill="black"/>
<path d="M454.177 36.7391V141.375H438.587V52.6101H437.885L413.025 68.9726V53.8039L439.008 36.7391H454.177ZM504.88 142.78C497.576 142.78 491.115 141.515 485.497 138.987C479.926 136.459 475.549 132.995 472.365 128.594C469.228 124.146 467.66 119.09 467.66 113.425C467.66 109.071 468.573 105.022 470.399 101.276C472.272 97.5309 474.8 94.4176 477.983 91.9363C481.167 89.455 484.748 87.8632 488.728 87.161V86.529C483.531 85.2649 479.341 82.4793 476.157 78.1721C473.021 73.8182 471.452 68.8556 471.452 63.2844C471.452 57.9004 472.88 53.1017 475.736 48.8881C478.639 44.6746 482.595 41.374 487.604 38.9864C492.66 36.5519 498.419 35.3346 504.88 35.3346C511.247 35.3346 516.935 36.5519 521.944 38.9864C527.001 41.374 530.957 44.6746 533.812 48.8881C536.715 53.1017 538.166 57.9004 538.166 63.2844C538.166 68.8556 536.575 73.8182 533.391 78.1721C530.254 82.4793 526.134 85.2649 521.031 86.529V87.161C524.964 87.8632 528.522 89.455 531.706 91.9363C534.889 94.4176 537.417 97.5309 539.29 101.276C541.163 105.022 542.099 109.071 542.099 113.425C542.099 119.09 540.507 124.146 537.324 128.594C534.14 132.995 529.739 136.459 524.121 138.987C518.55 141.515 512.136 142.78 504.88 142.78ZM504.88 129.858C509.187 129.858 512.932 129.156 516.116 127.751C519.299 126.3 521.757 124.263 523.489 121.642C525.222 119.02 526.088 115.977 526.088 112.512C526.088 108.861 525.151 105.654 523.279 102.891C521.453 100.082 518.948 97.8821 515.765 96.2903C512.581 94.6517 508.953 93.8324 504.88 93.8324C500.76 93.8324 497.085 94.6283 493.854 96.2201C490.671 97.8118 488.166 100.012 486.34 102.821C484.514 105.63 483.601 108.861 483.601 112.512C483.601 115.977 484.467 119.02 486.2 121.642C487.932 124.263 490.39 126.3 493.573 127.751C496.757 129.156 500.526 129.858 504.88 129.858ZM504.88 81.2621C508.344 81.2621 511.411 80.5598 514.079 79.1553C516.795 77.7508 518.925 75.8079 520.47 73.3266C522.061 70.8453 522.857 67.9426 522.857 64.6186C522.857 61.3414 522.085 58.4856 520.54 56.0511C519.042 53.6167 516.935 51.7206 514.22 50.3629C511.551 49.0052 508.438 48.3263 504.88 48.3263C501.275 48.3263 498.115 49.0052 495.399 50.3629C492.684 51.7206 490.577 53.6167 489.079 56.0511C487.581 58.4856 486.832 61.3414 486.832 64.6186C486.832 67.9426 487.604 70.8453 489.149 73.3266C490.694 75.8079 492.801 77.7508 495.469 79.1553C498.185 80.5598 501.322 81.2621 504.88 81.2621ZM585.147 134.704V65.672H598.841V134.704H585.147ZM557.408 107.105V93.2706H626.51V107.105H557.408Z" fill="black"/>
<path d="M844.612 36.7391V141.375H829.022V52.6101H828.32L803.46 68.9726V53.8039L829.444 36.7391H844.612ZM895.315 142.78C888.012 142.78 881.551 141.515 875.933 138.987C870.362 136.459 865.984 132.995 862.801 128.594C859.664 124.146 858.096 119.09 858.096 113.425C858.096 109.071 859.009 105.022 860.834 101.276C862.707 97.5309 865.235 94.4176 868.419 91.9363C871.602 89.455 875.184 87.8632 879.163 87.161V86.529C873.967 85.2649 869.777 82.4793 866.593 78.1721C863.456 73.8182 861.888 68.8556 861.888 63.2844C861.888 57.9004 863.316 53.1017 866.172 48.8881C869.074 44.6746 873.03 41.374 878.04 38.9864C883.096 36.5519 888.854 35.3346 895.315 35.3346C901.682 35.3346 907.371 36.5519 912.38 38.9864C917.436 41.374 921.392 44.6746 924.248 48.8881C927.151 53.1017 928.602 57.9004 928.602 63.2844C928.602 68.8556 927.01 73.8182 923.827 78.1721C920.69 82.4793 916.57 85.2649 911.467 86.529V87.161C915.4 87.8632 918.958 89.455 922.141 91.9363C925.325 94.4176 927.853 97.5309 929.726 101.276C931.598 105.022 932.535 109.071 932.535 113.425C932.535 119.09 930.943 124.146 927.759 128.594C924.576 132.995 920.175 136.459 914.557 138.987C908.986 141.515 902.572 142.78 895.315 142.78ZM895.315 129.858C899.622 129.858 903.368 129.156 906.551 127.751C909.735 126.3 912.193 124.263 913.925 121.642C915.657 119.02 916.523 115.977 916.523 112.512C916.523 108.861 915.587 105.654 913.714 102.891C911.888 100.082 909.384 97.8821 906.2 96.2903C903.017 94.6517 899.388 93.8324 895.315 93.8324C891.195 93.8324 887.52 94.6283 884.29 96.2201C881.106 97.8118 878.601 100.012 876.776 102.821C874.95 105.63 874.037 108.861 874.037 112.512C874.037 115.977 874.903 119.02 876.635 121.642C878.367 124.263 880.825 126.3 884.009 127.751C887.192 129.156 890.961 129.858 895.315 129.858ZM895.315 81.2621C898.78 81.2621 901.846 80.5598 904.515 79.1553C907.23 77.7508 909.36 75.8079 910.905 73.3266C912.497 70.8453 913.293 67.9426 913.293 64.6186C913.293 61.3414 912.52 58.4856 910.975 56.0511C909.477 53.6167 907.371 51.7206 904.655 50.3629C901.987 49.0052 898.873 48.3263 895.315 48.3263C891.71 48.3263 888.55 49.0052 885.835 50.3629C883.119 51.7206 881.013 53.6167 879.514 56.0511C878.016 58.4856 877.267 61.3414 877.267 64.6186C877.267 67.9426 878.04 70.8453 879.585 73.3266C881.13 75.8079 883.236 77.7508 885.905 79.1553C888.62 80.5598 891.757 81.2621 895.315 81.2621ZM975.583 134.704V65.672H989.277V134.704H975.583ZM947.844 107.105V93.2706H1016.95V107.105H947.844Z" fill="black"/>
<path d="M1235.05 36.7391V141.375H1219.46V52.6101H1218.75L1193.89 68.9726V53.8039L1219.88 36.7391H1235.05ZM1285.75 142.78C1278.45 142.78 1271.98 141.515 1266.37 138.987C1260.8 136.459 1256.42 132.995 1253.23 128.594C1250.1 124.146 1248.53 119.09 1248.53 113.425C1248.53 109.071 1249.44 105.022 1251.27 101.276C1253.14 97.5309 1255.67 94.4176 1258.85 91.9363C1262.04 89.455 1265.62 87.8632 1269.6 87.161V86.529C1264.4 85.2649 1260.21 82.4793 1257.03 78.1721C1253.89 73.8182 1252.32 68.8556 1252.32 63.2844C1252.32 57.9004 1253.75 53.1017 1256.61 48.8881C1259.51 44.6746 1263.46 41.374 1268.47 38.9864C1273.53 36.5519 1279.29 35.3346 1285.75 35.3346C1292.12 35.3346 1297.8 36.5519 1302.81 38.9864C1307.87 41.374 1311.83 44.6746 1314.68 48.8881C1317.58 53.1017 1319.04 57.9004 1319.04 63.2844C1319.04 68.8556 1317.44 73.8182 1314.26 78.1721C1311.12 82.4793 1307 85.2649 1301.9 86.529V87.161C1305.83 87.8632 1309.39 89.455 1312.57 91.9363C1315.76 94.4176 1318.29 97.5309 1320.16 101.276C1322.03 105.022 1322.97 109.071 1322.97 113.425C1322.97 119.09 1321.38 124.146 1318.19 128.594C1315.01 132.995 1310.61 136.459 1304.99 138.987C1299.42 141.515 1293.01 142.78 1285.75 142.78ZM1285.75 129.858C1290.06 129.858 1293.8 129.156 1296.98 127.751C1300.17 126.3 1302.63 124.263 1304.36 121.642C1306.09 119.02 1306.96 115.977 1306.96 112.512C1306.96 108.861 1306.02 105.654 1304.15 102.891C1302.32 100.082 1299.82 97.8821 1296.63 96.2903C1293.45 94.6517 1289.82 93.8324 1285.75 93.8324C1281.63 93.8324 1277.95 94.6283 1274.72 96.2201C1271.54 97.8118 1269.04 100.012 1267.21 102.821C1265.38 105.63 1264.47 108.861 1264.47 112.512C1264.47 115.977 1265.34 119.02 1267.07 121.642C1268.8 124.263 1271.26 126.3 1274.44 127.751C1277.63 129.156 1281.39 129.858 1285.75 129.858ZM1285.75 81.2621C1289.21 81.2621 1292.28 80.5598 1294.95 79.1553C1297.66 77.7508 1299.79 75.8079 1301.34 73.3266C1302.93 70.8453 1303.73 67.9426 1303.73 64.6186C1303.73 61.3414 1302.95 58.4856 1301.41 56.0511C1299.91 53.6167 1297.8 51.7206 1295.09 50.3629C1292.42 49.0052 1289.31 48.3263 1285.75 48.3263C1282.14 48.3263 1278.98 49.0052 1276.27 50.3629C1273.55 51.7206 1271.45 53.6167 1269.95 56.0511C1268.45 58.4856 1267.7 61.3414 1267.7 64.6186C1267.7 67.9426 1268.47 70.8453 1270.02 73.3266C1271.56 75.8079 1273.67 77.7508 1276.34 79.1553C1279.05 80.5598 1282.19 81.2621 1285.75 81.2621ZM1366.02 134.704V65.672H1379.71V134.704H1366.02ZM1338.28 107.105V93.2706H1407.38V107.105H1338.28Z" fill="black"/>
<path d="M1625.48 36.7391V141.375H1609.89V52.6101H1609.19L1584.33 68.9726V53.8039L1610.31 36.7391H1625.48ZM1676.18 142.78C1668.88 142.78 1662.42 141.515 1656.8 138.987C1651.23 136.459 1646.85 132.995 1643.67 128.594C1640.53 124.146 1638.96 119.09 1638.96 113.425C1638.96 109.071 1639.88 105.022 1641.7 101.276C1643.58 97.5309 1646.1 94.4176 1649.29 91.9363C1652.47 89.455 1656.05 87.8632 1660.03 87.161V86.529C1654.84 85.2649 1650.65 82.4793 1647.46 78.1721C1644.33 73.8182 1642.76 68.8556 1642.76 63.2844C1642.76 57.9004 1644.18 53.1017 1647.04 48.8881C1649.94 44.6746 1653.9 41.374 1658.91 38.9864C1663.97 36.5519 1669.72 35.3346 1676.18 35.3346C1682.55 35.3346 1688.24 36.5519 1693.25 38.9864C1698.31 41.374 1702.26 44.6746 1705.12 48.8881C1708.02 53.1017 1709.47 57.9004 1709.47 63.2844C1709.47 68.8556 1707.88 73.8182 1704.7 78.1721C1701.56 82.4793 1697.44 85.2649 1692.34 86.529V87.161C1696.27 87.8632 1699.83 89.455 1703.01 91.9363C1706.19 94.4176 1708.72 97.5309 1710.59 101.276C1712.47 105.022 1713.4 109.071 1713.4 113.425C1713.4 119.09 1711.81 124.146 1708.63 128.594C1705.44 132.995 1701.04 136.459 1695.43 138.987C1689.85 141.515 1683.44 142.78 1676.18 142.78ZM1676.18 129.858C1680.49 129.858 1684.24 129.156 1687.42 127.751C1690.6 126.3 1693.06 124.263 1694.79 121.642C1696.53 119.02 1697.39 115.977 1697.39 112.512C1697.39 108.861 1696.46 105.654 1694.58 102.891C1692.76 100.082 1690.25 97.8821 1687.07 96.2903C1683.89 94.6517 1680.26 93.8324 1676.18 93.8324C1672.06 93.8324 1668.39 94.6283 1665.16 96.2201C1661.98 97.8118 1659.47 100.012 1657.64 102.821C1655.82 105.63 1654.91 108.861 1654.91 112.512C1654.91 115.977 1655.77 119.02 1657.5 121.642C1659.24 124.263 1661.69 126.3 1664.88 127.751C1668.06 129.156 1671.83 129.858 1676.18 129.858ZM1676.18 81.2621C1679.65 81.2621 1682.72 80.5598 1685.38 79.1553C1688.1 77.7508 1690.23 75.8079 1691.77 73.3266C1693.37 70.8453 1694.16 67.9426 1694.16 64.6186C1694.16 61.3414 1693.39 58.4856 1691.84 56.0511C1690.35 53.6167 1688.24 51.7206 1685.52 50.3629C1682.86 49.0052 1679.74 48.3263 1676.18 48.3263C1672.58 48.3263 1669.42 49.0052 1666.7 50.3629C1663.99 51.7206 1661.88 53.6167 1660.38 56.0511C1658.89 58.4856 1658.14 61.3414 1658.14 64.6186C1658.14 67.9426 1658.91 70.8453 1660.45 73.3266C1662 75.8079 1664.11 77.7508 1666.77 79.1553C1669.49 80.5598 1672.63 81.2621 1676.18 81.2621ZM1756.45 134.704V65.672H1770.15V134.704H1756.45ZM1728.71 107.105V93.2706H1797.81V107.105H1728.71Z" fill="black"/>
<path d="M2015.92 36.7391V141.375H2000.33V52.6101H1999.62L1974.77 68.9726V53.8039L2000.75 36.7391H2015.92ZM2066.62 142.78C2059.32 142.78 2052.86 141.515 2047.24 138.987C2041.67 136.459 2037.29 132.995 2034.11 128.594C2030.97 124.146 2029.4 119.09 2029.4 113.425C2029.4 109.071 2030.31 105.022 2032.14 101.276C2034.01 97.5309 2036.54 94.4176 2039.72 91.9363C2042.91 89.455 2046.49 87.8632 2050.47 87.161V86.529C2045.27 85.2649 2041.08 82.4793 2037.9 78.1721C2034.76 73.8182 2033.19 68.8556 2033.19 63.2844C2033.19 57.9004 2034.62 53.1017 2037.48 48.8881C2040.38 44.6746 2044.33 41.374 2049.34 38.9864C2054.4 36.5519 2060.16 35.3346 2066.62 35.3346C2072.99 35.3346 2078.68 36.5519 2083.68 38.9864C2088.74 41.374 2092.7 44.6746 2095.55 48.8881C2098.46 53.1017 2099.91 57.9004 2099.91 63.2844C2099.91 68.8556 2098.31 73.8182 2095.13 78.1721C2091.99 82.4793 2087.87 85.2649 2082.77 86.529V87.161C2086.7 87.8632 2090.26 89.455 2093.45 91.9363C2096.63 94.4176 2099.16 97.5309 2101.03 101.276C2102.9 105.022 2103.84 109.071 2103.84 113.425C2103.84 119.09 2102.25 124.146 2099.06 128.594C2095.88 132.995 2091.48 136.459 2085.86 138.987C2080.29 141.515 2073.88 142.78 2066.62 142.78ZM2066.62 129.858C2070.93 129.858 2074.67 129.156 2077.86 127.751C2081.04 126.3 2083.5 124.263 2085.23 121.642C2086.96 119.02 2087.83 115.977 2087.83 112.512C2087.83 108.861 2086.89 105.654 2085.02 102.891C2083.19 100.082 2080.69 97.8821 2077.5 96.2903C2074.32 94.6517 2070.69 93.8324 2066.62 93.8324C2062.5 93.8324 2058.82 94.6283 2055.59 96.2201C2052.41 97.8118 2049.91 100.012 2048.08 102.821C2046.25 105.63 2045.34 108.861 2045.34 112.512C2045.34 115.977 2046.21 119.02 2047.94 121.642C2049.67 124.263 2052.13 126.3 2055.31 127.751C2058.5 129.156 2062.27 129.858 2066.62 129.858ZM2066.62 81.2621C2070.08 81.2621 2073.15 80.5598 2075.82 79.1553C2078.53 77.7508 2080.66 75.8079 2082.21 73.3266C2083.8 70.8453 2084.6 67.9426 2084.6 64.6186C2084.6 61.3414 2083.83 58.4856 2082.28 56.0511C2080.78 53.6167 2078.68 51.7206 2075.96 50.3629C2073.29 49.0052 2070.18 48.3263 2066.62 48.3263C2063.01 48.3263 2059.85 49.0052 2057.14 50.3629C2054.42 51.7206 2052.32 53.6167 2050.82 56.0511C2049.32 58.4856 2048.57 61.3414 2048.57 64.6186C2048.57 67.9426 2049.34 70.8453 2050.89 73.3266C2052.43 75.8079 2054.54 77.7508 2057.21 79.1553C2059.93 80.5598 2063.06 81.2621 2066.62 81.2621ZM2146.89 134.704V65.672H2160.58V134.704H2146.89ZM2119.15 107.105V93.2706H2188.25V107.105H2119.15Z" fill="black"/>
<path d="M2406.35 36.7391V141.375H2390.76V52.6101H2390.06L2365.2 68.9726V53.8039L2391.18 36.7391H2406.35ZM2457.05 142.78C2449.75 142.78 2443.29 141.515 2437.67 138.987C2432.1 136.459 2427.72 132.995 2424.54 128.594C2421.4 124.146 2419.83 119.09 2419.83 113.425C2419.83 109.071 2420.75 105.022 2422.57 101.276C2424.45 97.5309 2426.97 94.4176 2430.16 91.9363C2433.34 89.455 2436.92 87.8632 2440.9 87.161V86.529C2435.7 85.2649 2431.51 82.4793 2428.33 78.1721C2425.19 73.8182 2423.63 68.8556 2423.63 63.2844C2423.63 57.9004 2425.05 53.1017 2427.91 48.8881C2430.81 44.6746 2434.77 41.374 2439.78 38.9864C2444.83 36.5519 2450.59 35.3346 2457.05 35.3346C2463.42 35.3346 2469.11 36.5519 2474.12 38.9864C2479.17 41.374 2483.13 44.6746 2485.99 48.8881C2488.89 53.1017 2490.34 57.9004 2490.34 63.2844C2490.34 68.8556 2488.75 73.8182 2485.56 78.1721C2482.43 82.4793 2478.31 85.2649 2473.21 86.529V87.161C2477.14 87.8632 2480.7 89.455 2483.88 91.9363C2487.06 94.4176 2489.59 97.5309 2491.46 101.276C2493.34 105.022 2494.27 109.071 2494.27 113.425C2494.27 119.09 2492.68 124.146 2489.5 128.594C2486.31 132.995 2481.91 136.459 2476.3 138.987C2470.72 141.515 2464.31 142.78 2457.05 142.78ZM2457.05 129.858C2461.36 129.858 2465.11 129.156 2468.29 127.751C2471.47 126.3 2473.93 124.263 2475.66 121.642C2477.4 119.02 2478.26 115.977 2478.26 112.512C2478.26 108.861 2477.33 105.654 2475.45 102.891C2473.63 100.082 2471.12 97.8821 2467.94 96.2903C2464.75 94.6517 2461.13 93.8324 2457.05 93.8324C2452.93 93.8324 2449.26 94.6283 2446.03 96.2201C2442.84 97.8118 2440.34 100.012 2438.51 102.821C2436.69 105.63 2435.78 108.861 2435.78 112.512C2435.78 115.977 2436.64 119.02 2438.37 121.642C2440.11 124.263 2442.56 126.3 2445.75 127.751C2448.93 129.156 2452.7 129.858 2457.05 129.858ZM2457.05 81.2621C2460.52 81.2621 2463.58 80.5598 2466.25 79.1553C2468.97 77.7508 2471.1 75.8079 2472.64 73.3266C2474.24 70.8453 2475.03 67.9426 2475.03 64.6186C2475.03 61.3414 2474.26 58.4856 2472.71 56.0511C2471.22 53.6167 2469.11 51.7206 2466.39 50.3629C2463.72 49.0052 2460.61 48.3263 2457.05 48.3263C2453.45 48.3263 2450.29 49.0052 2447.57 50.3629C2444.86 51.7206 2442.75 53.6167 2441.25 56.0511C2439.75 58.4856 2439.01 61.3414 2439.01 64.6186C2439.01 67.9426 2439.78 70.8453 2441.32 73.3266C2442.87 75.8079 2444.97 77.7508 2447.64 79.1553C2450.36 80.5598 2453.5 81.2621 2457.05 81.2621ZM2537.32 134.704V65.672H2551.02V134.704H2537.32ZM2509.58 107.105V93.2706H2578.68V107.105H2509.58Z" fill="black"/>
<path d="M2796.79 36.7391V141.375H2781.2V52.6101H2780.49L2755.63 68.9726V53.8039L2781.62 36.7391H2796.79ZM2847.49 142.78C2840.19 142.78 2833.72 141.515 2828.11 138.987C2822.54 136.459 2818.16 132.995 2814.97 128.594C2811.84 124.146 2810.27 119.09 2810.27 113.425C2810.27 109.071 2811.18 105.022 2813.01 101.276C2814.88 97.5309 2817.41 94.4176 2820.59 91.9363C2823.78 89.455 2827.36 87.8632 2831.34 87.161V86.529C2826.14 85.2649 2821.95 82.4793 2818.77 78.1721C2815.63 73.8182 2814.06 68.8556 2814.06 63.2844C2814.06 57.9004 2815.49 53.1017 2818.35 48.8881C2821.25 44.6746 2825.2 41.374 2830.21 38.9864C2835.27 36.5519 2841.03 35.3346 2847.49 35.3346C2853.86 35.3346 2859.54 36.5519 2864.55 38.9864C2869.61 41.374 2873.57 44.6746 2876.42 48.8881C2879.32 53.1017 2880.78 57.9004 2880.78 63.2844C2880.78 68.8556 2879.18 73.8182 2876 78.1721C2872.86 82.4793 2868.74 85.2649 2863.64 86.529V87.161C2867.57 87.8632 2871.13 89.455 2874.32 91.9363C2877.5 94.4176 2880.03 97.5309 2881.9 101.276C2883.77 105.022 2884.71 109.071 2884.71 113.425C2884.71 119.09 2883.12 124.146 2879.93 128.594C2876.75 132.995 2872.35 136.459 2866.73 138.987C2861.16 141.515 2854.75 142.78 2847.49 142.78ZM2847.49 129.858C2851.8 129.858 2855.54 129.156 2858.73 127.751C2861.91 126.3 2864.37 124.263 2866.1 121.642C2867.83 119.02 2868.7 115.977 2868.7 112.512C2868.7 108.861 2867.76 105.654 2865.89 102.891C2864.06 100.082 2861.56 97.8821 2858.37 96.2903C2855.19 94.6517 2851.56 93.8324 2847.49 93.8324C2843.37 93.8324 2839.69 94.6283 2836.46 96.2201C2833.28 97.8118 2830.78 100.012 2828.95 102.821C2827.12 105.63 2826.21 108.861 2826.21 112.512C2826.21 115.977 2827.08 119.02 2828.81 121.642C2830.54 124.263 2833 126.3 2836.18 127.751C2839.37 129.156 2843.13 129.858 2847.49 129.858ZM2847.49 81.2621C2850.95 81.2621 2854.02 80.5598 2856.69 79.1553C2859.4 77.7508 2861.53 75.8079 2863.08 73.3266C2864.67 70.8453 2865.47 67.9426 2865.47 64.6186C2865.47 61.3414 2864.69 58.4856 2863.15 56.0511C2861.65 53.6167 2859.54 51.7206 2856.83 50.3629C2854.16 49.0052 2851.05 48.3263 2847.49 48.3263C2843.88 48.3263 2840.72 49.0052 2838.01 50.3629C2835.29 51.7206 2833.19 53.6167 2831.69 56.0511C2830.19 58.4856 2829.44 61.3414 2829.44 64.6186C2829.44 67.9426 2830.21 70.8453 2831.76 73.3266C2833.3 75.8079 2835.41 77.7508 2838.08 79.1553C2840.79 80.5598 2843.93 81.2621 2847.49 81.2621ZM2927.76 134.704V65.672H2941.45V134.704H2927.76ZM2900.02 107.105V93.2706H2969.12V107.105H2900.02Z" fill="black"/>
<path d="M3187.22 36.7391V141.375H3171.63V52.6101H3170.93L3146.07 68.9726V53.8039L3172.05 36.7391H3187.22ZM3237.92 142.78C3230.62 142.78 3224.16 141.515 3218.54 138.987C3212.97 136.459 3208.59 132.995 3205.41 128.594C3202.27 124.146 3200.71 119.09 3200.71 113.425C3200.71 109.071 3201.62 105.022 3203.44 101.276C3205.32 97.5309 3207.84 94.4176 3211.03 91.9363C3214.21 89.455 3217.79 87.8632 3221.77 87.161V86.529C3216.58 85.2649 3212.39 82.4793 3209.2 78.1721C3206.07 73.8182 3204.5 68.8556 3204.5 63.2844C3204.5 57.9004 3205.93 53.1017 3208.78 48.8881C3211.68 44.6746 3215.64 41.374 3220.65 38.9864C3225.71 36.5519 3231.46 35.3346 3237.92 35.3346C3244.29 35.3346 3249.98 36.5519 3254.99 38.9864C3260.05 41.374 3264 44.6746 3266.86 48.8881C3269.76 53.1017 3271.21 57.9004 3271.21 63.2844C3271.21 68.8556 3269.62 73.8182 3266.44 78.1721C3263.3 82.4793 3259.18 85.2649 3254.08 86.529V87.161C3258.01 87.8632 3261.57 89.455 3264.75 91.9363C3267.93 94.4176 3270.46 97.5309 3272.33 101.276C3274.21 105.022 3275.14 109.071 3275.14 113.425C3275.14 119.09 3273.55 124.146 3270.37 128.594C3267.19 132.995 3262.78 136.459 3257.17 138.987C3251.6 141.515 3245.18 142.78 3237.92 142.78ZM3237.92 129.858C3242.23 129.858 3245.98 129.156 3249.16 127.751C3252.34 126.3 3254.8 124.263 3256.53 121.642C3258.27 119.02 3259.13 115.977 3259.13 112.512C3259.13 108.861 3258.2 105.654 3256.32 102.891C3254.5 100.082 3251.99 97.8821 3248.81 96.2903C3245.63 94.6517 3242 93.8324 3237.92 93.8324C3233.8 93.8324 3230.13 94.6283 3226.9 96.2201C3223.72 97.8118 3221.21 100.012 3219.39 102.821C3217.56 105.63 3216.65 108.861 3216.65 112.512C3216.65 115.977 3217.51 119.02 3219.24 121.642C3220.98 124.263 3223.43 126.3 3226.62 127.751C3229.8 129.156 3233.57 129.858 3237.92 129.858ZM3237.92 81.2621C3241.39 81.2621 3244.46 80.5598 3247.12 79.1553C3249.84 77.7508 3251.97 75.8079 3253.51 73.3266C3255.11 70.8453 3255.9 67.9426 3255.9 64.6186C3255.9 61.3414 3255.13 58.4856 3253.58 56.0511C3252.09 53.6167 3249.98 51.7206 3247.26 50.3629C3244.6 49.0052 3241.48 48.3263 3237.92 48.3263C3234.32 48.3263 3231.16 49.0052 3228.44 50.3629C3225.73 51.7206 3223.62 53.6167 3222.12 56.0511C3220.63 58.4856 3219.88 61.3414 3219.88 64.6186C3219.88 67.9426 3220.65 70.8453 3222.19 73.3266C3223.74 75.8079 3225.85 77.7508 3228.51 79.1553C3231.23 80.5598 3234.37 81.2621 3237.92 81.2621ZM3318.19 134.704V65.672H3331.89V134.704H3318.19ZM3290.45 107.105V93.2706H3359.55V107.105H3290.45Z" fill="black"/>
<path d="M336.845 152.393L301.128 152.393L301.128 149.486L306.104 149.486L306.104 149.137C305.329 148.781 304.531 148.285 303.709 147.649C302.887 147.014 302.197 146.169 301.639 145.115C301.066 144.06 300.779 142.743 300.779 141.161C300.779 139.022 301.345 137.154 302.477 135.557C303.593 133.945 305.158 132.69 307.174 131.79C309.189 130.891 311.53 130.442 314.196 130.442C316.878 130.442 319.234 130.891 321.265 131.79C323.296 132.674 324.877 133.922 326.009 135.534C327.125 137.131 327.683 138.999 327.683 141.138C327.683 142.704 327.404 144.022 326.846 145.091C326.272 146.145 325.567 146.998 324.73 147.649C323.893 148.285 323.079 148.781 322.288 149.137L322.288 149.393L336.845 149.393L336.845 152.393ZM324.939 141.464C324.939 139.759 324.459 138.309 323.497 137.115C322.536 135.922 321.242 135.015 319.614 134.395C317.986 133.775 316.173 133.465 314.173 133.465C312.173 133.465 310.375 133.775 308.778 134.395C307.166 135.015 305.887 135.914 304.941 137.092C303.996 138.27 303.523 139.728 303.523 141.464C303.523 143.169 303.98 144.611 304.895 145.789C305.794 146.967 307.042 147.866 308.639 148.486C310.235 149.106 312.08 149.416 314.173 149.416C316.25 149.416 318.103 149.106 319.73 148.486C321.343 147.866 322.614 146.967 323.544 145.789C324.474 144.595 324.939 143.153 324.939 141.464ZM327.683 118.149C327.683 120.567 327.117 122.668 325.986 124.451C324.838 126.233 323.257 127.605 321.242 128.567C319.227 129.528 316.909 130.008 314.289 130.008C311.669 130.008 309.344 129.535 307.313 128.59C305.282 127.629 303.686 126.295 302.523 124.59C301.36 122.885 300.779 120.908 300.779 118.661C300.779 117.265 301.043 115.909 301.57 114.591C302.081 113.274 302.864 112.088 303.918 111.034C304.972 109.979 306.313 109.15 307.941 108.545C309.553 107.941 311.476 107.639 313.708 107.639L315.057 107.639L315.057 127.939L312.406 127.939L312.406 109.266L313.429 110.638C311.538 110.638 309.848 110.964 308.36 111.615C306.871 112.251 305.693 113.165 304.825 114.359C303.957 115.552 303.523 116.986 303.523 118.661C303.523 120.319 303.965 121.777 304.848 123.032C305.716 124.288 306.879 125.265 308.336 125.962C309.778 126.644 311.359 126.985 313.08 126.985L314.638 126.985C316.715 126.985 318.529 126.629 320.079 125.916C321.614 125.187 322.808 124.164 323.66 122.846C324.513 121.513 324.939 119.947 324.939 118.149C324.939 116.924 324.745 115.847 324.358 114.917C323.97 113.987 323.451 113.204 322.8 112.568C322.133 111.933 321.412 111.452 320.637 111.127L321.591 108.266C322.676 108.669 323.684 109.321 324.614 110.22C325.528 111.103 326.272 112.219 326.846 113.568C327.404 114.901 327.683 116.428 327.683 118.149ZM327.683 95.8576C327.683 98.1054 327.117 100.09 325.986 101.81C324.838 103.531 323.257 104.88 321.242 105.856C319.211 106.818 316.886 107.298 314.266 107.298C311.6 107.298 309.259 106.818 307.243 105.856C305.213 104.88 303.631 103.531 302.5 101.81C301.353 100.09 300.779 98.1054 300.779 95.8576C300.779 93.6097 301.353 91.6332 302.5 89.928C303.631 88.2072 305.213 86.8585 307.243 85.8819C309.259 84.9053 311.6 84.4169 314.266 84.4169C316.886 84.4169 319.211 84.9053 321.242 85.8819C323.257 86.843 324.838 88.184 325.986 89.9047C327.117 91.6255 327.683 93.6097 327.683 95.8576ZM324.939 95.8576C324.939 94.0438 324.459 92.5168 323.497 91.2767C322.521 90.021 321.219 89.0676 319.591 88.4165C317.963 87.7654 316.188 87.4399 314.266 87.4399C312.313 87.4399 310.522 87.7654 308.894 88.4165C307.267 89.0676 305.965 90.021 304.988 91.2767C304.011 92.5323 303.523 94.0593 303.523 95.8576C303.523 97.6558 304.019 99.1828 305.011 100.438C305.988 101.679 307.29 102.632 308.918 103.299C310.53 103.95 312.313 104.275 314.266 104.275C316.188 104.275 317.963 103.95 319.591 103.299C321.219 102.648 322.521 101.694 323.497 100.438C324.459 99.1828 324.939 97.6558 324.939 95.8576ZM336.845 82.6348L301.128 82.6348L301.128 79.7282L306.104 79.7282L306.104 79.3794C305.329 79.0228 304.531 78.5267 303.709 77.8911C302.887 77.2556 302.197 76.4107 301.639 75.3565C301.066 74.3024 300.779 72.9847 300.779 71.4035C300.779 69.2642 301.345 67.3962 302.477 65.7994C303.593 64.1872 305.158 62.9315 307.174 62.0324C309.189 61.1333 311.53 60.6837 314.196 60.6837C316.878 60.6837 319.234 61.1333 321.265 62.0324C323.296 62.916 324.877 64.164 326.009 65.7762C327.125 67.3729 327.683 69.2409 327.683 71.3802C327.683 72.9459 327.404 74.2636 326.846 75.3333C326.272 76.3874 325.567 77.2401 324.73 77.8911C323.893 78.5267 323.079 79.0228 322.288 79.3794L322.288 79.6351L336.845 79.6351L336.845 82.6348ZM324.939 71.7058C324.939 70.0005 324.459 68.5511 323.497 67.3574C322.536 66.1637 321.242 65.2569 319.614 64.6368C317.986 64.0167 316.173 63.7066 314.173 63.7066C312.173 63.7066 310.375 64.0167 308.778 64.6368C307.166 65.2569 305.887 66.156 304.941 67.3342C303.996 68.5123 303.523 69.9695 303.523 71.7058C303.523 73.411 303.98 74.8527 304.895 76.0309C305.794 77.209 307.042 78.1082 308.639 78.7283C310.235 79.3483 312.08 79.6584 314.173 79.6584C316.25 79.6584 318.103 79.3483 319.73 78.7283C321.343 78.1082 322.614 77.209 323.544 76.0309C324.474 74.8372 324.939 73.3955 324.939 71.7058ZM292.478 55.9019L327.125 55.9019L327.125 58.9016L292.478 58.9016L292.478 55.9019ZM327.683 42.2374C327.683 44.6557 327.117 46.7562 325.986 48.539C324.838 50.3217 323.257 51.6937 321.242 52.6548C319.227 53.616 316.909 54.0965 314.289 54.0965C311.669 54.0965 309.344 53.6237 307.313 52.6781C305.282 51.7169 303.686 50.3838 302.523 48.6785C301.36 46.9733 300.779 44.9967 300.779 42.7489C300.779 41.3537 301.043 39.9973 301.57 38.6796C302.081 37.3619 302.864 36.176 303.918 35.1219C304.972 34.0677 306.313 33.2383 307.941 32.6338C309.553 32.0292 311.476 31.7269 313.708 31.7269L315.057 31.7269L315.057 52.027L312.406 52.027L312.406 33.3546L313.429 34.7266C311.538 34.7266 309.848 35.0521 308.36 35.7032C306.871 36.3388 305.693 37.2534 304.825 38.4471C303.957 39.6407 303.523 41.0747 303.523 42.7489C303.523 44.4077 303.965 45.8649 304.848 47.1205C305.716 48.3762 306.879 49.3529 308.336 50.0505C309.778 50.7326 311.359 51.0736 313.08 51.0736L314.638 51.0736C316.715 51.0736 318.529 50.7171 320.079 50.004C321.614 49.2754 322.808 48.2522 323.66 46.9345C324.513 45.6013 324.939 44.0356 324.939 42.2374C324.939 41.0127 324.745 39.9353 324.358 39.0052C323.97 38.075 323.451 37.2922 322.8 36.6566C322.133 36.021 321.412 35.5404 320.637 35.2149L321.591 32.3547C322.676 32.7578 323.684 33.4089 324.614 34.308C325.528 35.1916 326.272 36.3078 326.846 37.6565C327.404 38.9897 327.683 40.5166 327.683 42.2374Z" fill="black"/>
<path d="M690.565 144.22L693.193 144.22L693.193 156.986L690.565 156.986L690.565 144.22ZM716.562 152.986L686.775 152.986C685.364 152.986 684.186 152.66 683.241 152.009C682.279 151.358 681.551 150.513 681.055 149.475C680.559 148.421 680.311 147.312 680.311 146.15C680.311 145.343 680.38 144.677 680.52 144.15C680.644 143.623 680.776 143.212 680.915 142.917L683.543 143.801C683.45 144.034 683.365 144.313 683.287 144.638C683.194 144.948 683.148 145.359 683.148 145.871C683.148 147.173 683.52 148.188 684.264 148.917C685.008 149.645 686.062 150.01 687.426 150.01L716.562 150.01L716.562 152.986ZM681.915 140.019L716.562 140.019L716.562 143.019L681.915 143.019L681.915 140.019ZM717.121 126.773C717.121 129.021 716.555 131.005 715.423 132.726C714.276 134.447 712.695 135.795 710.679 136.772C708.649 137.733 706.323 138.214 703.703 138.214C701.037 138.214 698.696 137.733 696.681 136.772C694.65 135.795 693.069 134.447 691.937 132.726C690.79 131.005 690.217 129.021 690.217 126.773C690.217 124.525 690.79 122.549 691.937 120.843C693.069 119.123 694.65 117.774 696.681 116.797C698.696 115.821 701.037 115.332 703.703 115.332C706.323 115.332 708.649 115.821 710.679 116.797C712.695 117.759 714.276 119.099 715.423 120.82C716.555 122.541 717.121 124.525 717.121 126.773ZM714.377 126.773C714.377 124.959 713.896 123.432 712.935 122.192C711.958 120.936 710.656 119.983 709.028 119.332C707.401 118.681 705.626 118.355 703.703 118.355C701.75 118.355 699.96 118.681 698.332 119.332C696.704 119.983 695.402 120.936 694.425 122.192C693.449 123.448 692.96 124.975 692.96 126.773C692.96 128.571 693.456 130.098 694.449 131.354C695.425 132.594 696.727 133.548 698.355 134.214C699.967 134.865 701.75 135.191 703.703 135.191C705.626 135.191 707.401 134.865 709.028 134.214C710.656 133.563 711.958 132.61 712.935 131.354C713.896 130.098 714.377 128.571 714.377 126.773ZM716.562 108.667L690.565 116.527L690.565 113.341L712.005 107.179L712.005 106.946L690.565 100.808L690.565 97.5986L711.982 91.5527L711.982 91.3202L690.565 85.1348L690.565 81.9724L716.562 89.8087L716.562 92.9014L695.286 99.0868L695.286 99.3891L716.562 105.574L716.562 108.667ZM717.121 71.261C717.121 73.6793 716.555 75.7799 715.423 77.5626C714.276 79.3454 712.695 80.7173 710.679 81.6784C708.664 82.6396 706.347 83.1202 703.727 83.1202C701.107 83.1202 698.781 82.6473 696.751 81.7017C694.72 80.7406 693.123 79.4074 691.961 77.7021C690.798 75.9969 690.217 74.0204 690.217 71.7726C690.217 70.3774 690.48 69.0209 691.007 67.7032C691.519 66.3855 692.302 65.1996 693.356 64.1455C694.41 63.0913 695.751 62.262 697.379 61.6574C698.991 61.0528 700.913 60.7505 703.145 60.7505L704.494 60.7505L704.494 81.0506L701.843 81.0506L701.843 62.3782L702.866 63.7502C700.975 63.7502 699.285 64.0757 697.797 64.7268C696.309 65.3624 695.131 66.277 694.263 67.4707C693.394 68.6644 692.96 70.0983 692.96 71.7726C692.96 73.4313 693.402 74.8885 694.286 76.1442C695.154 77.3998 696.317 78.3765 697.774 79.0741C699.216 79.7562 700.797 80.0972 702.518 80.0972L704.075 80.0972C706.153 80.0972 707.967 79.7407 709.517 79.0276C711.051 78.299 712.245 77.2758 713.098 75.9581C713.95 74.625 714.377 73.0592 714.377 71.261C714.377 70.0363 714.183 68.9589 713.795 68.0288C713.408 67.0986 712.888 66.3158 712.237 65.6802C711.571 65.0446 710.85 64.564 710.075 64.2385L711.028 61.3783C712.113 61.7814 713.121 62.4325 714.051 63.3316C714.966 64.2152 715.71 65.3314 716.283 66.6801C716.842 68.0133 717.121 69.5402 717.121 71.261ZM716.562 59.0614L690.565 59.0614L690.565 56.1547L694.588 56.1547L694.588 55.9222C693.27 55.3951 692.216 54.4882 691.426 53.2016C690.62 51.8994 690.217 50.4344 690.217 48.8067C690.217 48.5586 690.217 48.2874 690.217 47.9928C690.217 47.6828 690.224 47.427 690.24 47.2255L693.286 47.2255C693.27 47.3495 693.247 47.582 693.216 47.9231C693.17 48.2641 693.146 48.6439 693.146 49.0625C693.146 50.3957 693.433 51.5971 694.007 52.6667C694.58 53.7209 695.371 54.5502 696.379 55.1548C697.371 55.7594 698.51 56.0617 699.797 56.0617L716.562 56.0617L716.562 59.0614ZM696.309 29.4683L697.053 32.2122C695.89 32.6153 694.906 33.2896 694.1 34.2353C693.278 35.1654 692.867 36.5063 692.867 38.2581C692.867 40.0098 693.294 41.4515 694.146 42.5832C694.983 43.7148 696.061 44.2807 697.379 44.2807C698.479 44.2807 699.386 43.9009 700.099 43.1413C700.797 42.3661 701.347 41.1725 701.75 39.5603L702.704 35.6304C703.246 33.4601 704.091 31.8324 705.238 30.7473C706.37 29.6466 707.804 29.0963 709.54 29.0963C710.997 29.0963 712.299 29.5071 713.447 30.3287C714.594 31.1348 715.493 32.2587 716.144 33.7004C716.795 35.1421 717.121 36.8164 717.121 38.7231C717.121 41.2655 716.547 43.3583 715.4 45.0015C714.237 46.6448 712.578 47.6989 710.424 48.164L709.726 45.2806C711.261 44.924 712.423 44.1954 713.214 43.0948C714.005 41.9941 714.4 40.5524 714.4 38.7696C714.4 36.7854 713.95 35.1886 713.051 33.9795C712.152 32.7703 711.036 32.1657 709.703 32.1657C707.563 32.1657 706.145 33.5842 705.447 36.4211L704.424 40.6532C703.882 42.9165 703.029 44.5907 701.866 45.6759C700.704 46.761 699.254 47.3036 697.518 47.3036C696.092 47.3036 694.828 46.916 693.728 46.1409C692.627 45.3503 691.767 44.2729 691.147 42.9087C690.527 41.5445 690.217 39.9943 690.217 38.2581C690.217 35.8707 690.767 33.964 691.868 32.5378C692.953 31.1116 694.433 30.0884 696.309 29.4683Z" fill="black"/>
<path d="M1080 143.685L1082.63 143.685L1082.63 156.079L1080 156.079L1080 143.685ZM1073.82 152.195L1073.82 149.196L1099.21 149.196C1100.62 149.196 1101.68 148.847 1102.4 148.149C1103.09 147.452 1103.44 146.483 1103.44 145.243C1103.44 144.964 1103.43 144.684 1103.4 144.405C1103.35 144.111 1103.29 143.801 1103.21 143.475L1105.93 142.824C1106.07 143.181 1106.18 143.592 1106.26 144.057C1106.33 144.522 1106.37 145.002 1106.37 145.498C1106.37 147.421 1105.78 149.017 1104.6 150.289C1103.41 151.56 1101.85 152.195 1099.93 152.195L1073.82 152.195ZM1106.56 131.415C1106.56 133.834 1105.99 135.934 1104.86 137.717C1103.71 139.5 1102.13 140.872 1100.12 141.833C1098.1 142.794 1095.78 143.274 1093.16 143.274C1090.54 143.274 1088.22 142.802 1086.19 141.856C1084.16 140.895 1082.56 139.562 1081.4 137.856C1080.24 136.151 1079.65 134.175 1079.65 131.927C1079.65 130.532 1079.92 129.175 1080.44 127.857C1080.96 126.54 1081.74 125.354 1082.79 124.3C1083.85 123.246 1085.19 122.416 1086.82 121.812C1088.43 121.207 1090.35 120.905 1092.58 120.905L1093.93 120.905L1093.93 141.205L1091.28 141.205L1091.28 122.532L1092.3 123.904C1090.41 123.904 1088.72 124.23 1087.23 124.881C1085.75 125.517 1084.57 126.431 1083.7 127.625C1082.83 128.819 1082.4 130.253 1082.4 131.927C1082.4 133.586 1082.84 135.043 1083.72 136.298C1084.59 137.554 1085.75 138.531 1087.21 139.228C1088.65 139.91 1090.23 140.251 1091.96 140.251L1093.51 140.251C1095.59 140.251 1097.4 139.895 1098.95 139.182C1100.49 138.453 1101.68 137.43 1102.54 136.112C1103.39 134.779 1103.81 133.213 1103.81 131.415C1103.81 130.191 1103.62 129.113 1103.23 128.183C1102.85 127.253 1102.33 126.47 1101.67 125.834C1101.01 125.199 1100.29 124.718 1099.51 124.393L1100.47 121.533C1101.55 121.936 1102.56 122.587 1103.49 123.486C1104.4 124.369 1105.15 125.486 1105.72 126.834C1106.28 128.168 1106.56 129.695 1106.56 131.415ZM1106.56 109.077C1106.56 111.403 1105.98 113.426 1104.81 115.146C1103.65 116.867 1102.06 118.2 1100.05 119.146C1098.02 120.092 1095.71 120.564 1093.14 120.564C1090.52 120.564 1088.2 120.084 1086.19 119.123C1084.16 118.161 1082.56 116.821 1081.4 115.1C1080.24 113.379 1079.65 111.387 1079.65 109.124C1079.65 107.387 1080 105.814 1080.68 104.403C1081.34 102.993 1082.29 101.83 1083.51 100.915C1084.72 99.9852 1086.13 99.4038 1087.75 99.1713L1087.75 102.194C1086.77 102.411 1085.88 102.83 1085.07 103.45C1084.27 104.055 1083.62 104.837 1083.14 105.799C1082.65 106.744 1082.4 107.837 1082.4 109.077C1082.4 110.736 1082.85 112.201 1083.75 113.472C1084.65 114.743 1085.89 115.743 1087.49 116.472C1089.09 117.185 1090.94 117.541 1093.05 117.541C1095.14 117.541 1097 117.193 1098.63 116.495C1100.26 115.797 1101.53 114.813 1102.44 113.542C1103.36 112.255 1103.81 110.767 1103.81 109.077C1103.81 107.356 1103.33 105.868 1102.35 104.613C1101.37 103.357 1100.06 102.551 1098.42 102.194L1098.42 99.1713C1099.99 99.3883 1101.38 99.9464 1102.61 100.846C1103.83 101.729 1104.8 102.876 1105.51 104.287C1106.21 105.682 1106.56 107.279 1106.56 109.077ZM1089.77 94.4825L1106 94.4825L1106 97.4822L1071.35 97.4822L1071.35 94.4825L1084.12 94.4825L1084.12 94.1802C1082.77 93.5756 1081.69 92.6378 1080.89 91.3666C1080.08 90.0954 1079.68 88.4754 1079.68 86.5067C1079.68 84.7549 1080.04 83.2124 1080.77 81.8792C1081.48 80.5461 1082.55 79.5074 1083.96 78.7633C1085.37 78.0037 1087.11 77.6239 1089.19 77.6239L1106 77.6239L1106 80.6468L1089.37 80.6468C1087.22 80.6468 1085.52 81.2514 1084.28 82.4606C1083.04 83.6542 1082.42 85.2665 1082.42 87.2973C1082.42 88.677 1082.72 89.9094 1083.33 90.9945C1083.92 92.0642 1084.76 92.9168 1085.86 93.5524C1086.95 94.1725 1088.25 94.4825 1089.77 94.4825ZM1089.77 71.4934L1106 71.4934L1106 74.4931L1080 74.4931L1080 71.5864L1084.12 71.5864L1084.12 71.2841C1082.77 70.6795 1081.69 69.7339 1080.89 68.4472C1080.08 67.1605 1079.68 65.5638 1079.68 63.657C1079.68 61.9053 1080.04 60.3706 1080.77 59.0529C1081.5 57.7197 1082.57 56.6811 1083.98 55.937C1085.39 55.1929 1087.13 54.8208 1089.19 54.8208L1106 54.8208L1106 57.8205L1089.37 57.8205C1087.25 57.8205 1085.56 58.4173 1084.3 59.611C1083.05 60.8046 1082.42 62.4014 1082.42 64.4012C1082.42 65.7653 1082.72 66.9823 1083.33 68.0519C1083.92 69.1216 1084.76 69.9664 1085.86 70.5865C1086.95 71.1911 1088.25 71.4934 1089.77 71.4934ZM1106.56 41.5981C1106.56 43.8459 1105.99 45.8302 1104.86 47.5509C1103.71 49.2716 1102.13 50.6203 1100.12 51.597C1098.09 52.5581 1095.76 53.0387 1093.14 53.0387C1090.47 53.0387 1088.13 52.5581 1086.12 51.597C1084.09 50.6203 1082.51 49.2716 1081.37 47.5509C1080.23 45.8302 1079.65 43.8459 1079.65 41.5981C1079.65 39.3502 1080.23 37.3737 1081.37 35.6685C1082.51 33.9477 1084.09 32.599 1086.12 31.6224C1088.13 30.6458 1090.47 30.1574 1093.14 30.1574C1095.76 30.1574 1098.09 30.6458 1100.12 31.6224C1102.13 32.5835 1103.71 33.9245 1104.86 35.6452C1105.99 37.366 1106.56 39.3502 1106.56 41.5981ZM1103.81 41.5981C1103.81 39.7843 1103.33 38.2573 1102.37 37.0172C1101.4 35.7615 1100.09 34.8081 1098.47 34.157C1096.84 33.5059 1095.06 33.1804 1093.14 33.1804C1091.19 33.1804 1089.4 33.5059 1087.77 34.157C1086.14 34.8081 1084.84 35.7615 1083.86 37.0172C1082.89 38.2728 1082.4 39.7998 1082.4 41.5981C1082.4 43.3963 1082.89 44.9233 1083.89 46.179C1084.86 47.4191 1086.16 48.3725 1087.79 49.0391C1089.4 49.6902 1091.19 50.0157 1093.14 50.0157C1095.06 50.0157 1096.84 49.6902 1098.47 49.0391C1100.09 48.388 1101.4 47.4346 1102.37 46.179C1103.33 44.9233 1103.81 43.3963 1103.81 41.5981Z" fill="black"/>
<path d="M1512.72 152.268L1477 152.268L1477 149.361L1481.98 149.361L1481.98 149.012C1481.2 148.656 1480.41 148.16 1479.58 147.524C1478.76 146.889 1478.07 146.044 1477.51 144.99C1476.94 143.935 1476.65 142.618 1476.65 141.036C1476.65 138.897 1477.22 137.029 1478.35 135.432C1479.47 133.82 1481.03 132.565 1483.05 131.665C1485.06 130.766 1487.4 130.317 1490.07 130.317C1492.75 130.317 1495.11 130.766 1497.14 131.665C1499.17 132.549 1500.75 133.797 1501.88 135.409C1503 137.006 1503.56 138.874 1503.56 141.013C1503.56 142.579 1503.28 143.897 1502.72 144.966C1502.15 146.02 1501.44 146.873 1500.6 147.524C1499.77 148.16 1498.95 148.656 1498.16 149.012L1498.16 149.268L1512.72 149.268L1512.72 152.268ZM1500.81 141.339C1500.81 139.634 1500.33 138.184 1499.37 136.99C1498.41 135.797 1497.12 134.89 1495.49 134.27C1493.86 133.65 1492.05 133.34 1490.05 133.34C1488.05 133.34 1486.25 133.65 1484.65 134.27C1483.04 134.89 1481.76 135.789 1480.82 136.967C1479.87 138.145 1479.4 139.603 1479.4 141.339C1479.4 143.044 1479.86 144.486 1480.77 145.664C1481.67 146.842 1482.92 147.741 1484.51 148.361C1486.11 148.981 1487.96 149.291 1490.05 149.291C1492.13 149.291 1493.98 148.981 1495.61 148.361C1497.22 147.741 1498.49 146.842 1499.42 145.664C1500.35 144.47 1500.81 143.028 1500.81 141.339ZM1503.56 118.024C1503.56 120.442 1502.99 122.543 1501.86 124.326C1500.71 126.108 1499.13 127.48 1497.12 128.442C1495.1 129.403 1492.78 129.883 1490.16 129.883C1487.54 129.883 1485.22 129.41 1483.19 128.465C1481.16 127.504 1479.56 126.17 1478.4 124.465C1477.24 122.76 1476.65 120.783 1476.65 118.536C1476.65 117.14 1476.92 115.784 1477.44 114.466C1477.96 113.149 1478.74 111.963 1479.79 110.909C1480.85 109.854 1482.19 109.025 1483.82 108.42C1485.43 107.816 1487.35 107.514 1489.58 107.514L1490.93 107.514L1490.93 127.814L1488.28 127.814L1488.28 109.141L1489.3 110.513C1487.41 110.513 1485.72 110.839 1484.23 111.49C1482.75 112.126 1481.57 113.04 1480.7 114.234C1479.83 115.427 1479.4 116.861 1479.4 118.536C1479.4 120.194 1479.84 121.652 1480.72 122.907C1481.59 124.163 1482.75 125.14 1484.21 125.837C1485.65 126.519 1487.23 126.86 1488.96 126.86L1490.51 126.86C1492.59 126.86 1494.4 126.504 1495.95 125.791C1497.49 125.062 1498.68 124.039 1499.54 122.721C1500.39 121.388 1500.81 119.822 1500.81 118.024C1500.81 116.799 1500.62 115.722 1500.23 114.792C1499.85 113.862 1499.33 113.079 1498.67 112.443C1498.01 111.808 1497.29 111.327 1496.51 111.002L1497.47 108.141C1498.55 108.544 1499.56 109.196 1500.49 110.095C1501.4 110.978 1502.15 112.094 1502.72 113.443C1503.28 114.776 1503.56 116.303 1503.56 118.024ZM1503.56 95.7326C1503.56 97.9804 1502.99 99.9647 1501.86 101.685C1500.71 103.406 1499.13 104.755 1497.12 105.731C1495.09 106.693 1492.76 107.173 1490.14 107.173C1487.47 107.173 1485.13 106.693 1483.12 105.731C1481.09 104.755 1479.51 103.406 1478.37 101.685C1477.23 99.9647 1476.65 97.9804 1476.65 95.7326C1476.65 93.4847 1477.23 91.5082 1478.37 89.803C1479.51 88.0822 1481.09 86.7335 1483.12 85.7569C1485.13 84.7803 1487.47 84.2919 1490.14 84.2919C1492.76 84.2919 1495.09 84.7803 1497.12 85.7569C1499.13 86.718 1500.71 88.059 1501.86 89.7797C1502.99 91.5005 1503.56 93.4847 1503.56 95.7326ZM1500.81 95.7326C1500.81 93.9188 1500.33 92.3918 1499.37 91.1517C1498.4 89.896 1497.09 88.9426 1495.47 88.2915C1493.84 87.6404 1492.06 87.3149 1490.14 87.3149C1488.19 87.3149 1486.4 87.6404 1484.77 88.2915C1483.14 88.9426 1481.84 89.896 1480.86 91.1517C1479.89 92.4073 1479.4 93.9343 1479.4 95.7326C1479.4 97.5308 1479.89 99.0578 1480.89 100.313C1481.86 101.554 1483.16 102.507 1484.79 103.174C1486.4 103.825 1488.19 104.15 1490.14 104.15C1492.06 104.15 1493.84 103.825 1495.47 103.174C1497.09 102.523 1498.4 101.569 1499.37 100.313C1500.33 99.0578 1500.81 97.5308 1500.81 95.7326ZM1512.72 82.5098L1477 82.5098L1477 79.6032L1481.98 79.6032L1481.98 79.2544C1481.2 78.8978 1480.41 78.4017 1479.58 77.7661C1478.76 77.1306 1478.07 76.2857 1477.51 75.2315C1476.94 74.1774 1476.65 72.8597 1476.65 71.2785C1476.65 69.1392 1477.22 67.2712 1478.35 65.6744C1479.47 64.0622 1481.03 62.8065 1483.05 61.9074C1485.06 61.0083 1487.4 60.5587 1490.07 60.5587C1492.75 60.5587 1495.11 61.0083 1497.14 61.9074C1499.17 62.791 1500.75 64.039 1501.88 65.6512C1503 67.2479 1503.56 69.1159 1503.56 71.2552C1503.56 72.8209 1503.28 74.1386 1502.72 75.2083C1502.15 76.2624 1501.44 77.1151 1500.6 77.7661C1499.77 78.4017 1498.95 78.8978 1498.16 79.2544L1498.16 79.5101L1512.72 79.5101L1512.72 82.5098ZM1500.81 71.5808C1500.81 69.8755 1500.33 68.4261 1499.37 67.2324C1498.41 66.0387 1497.12 65.1319 1495.49 64.5118C1493.86 63.8917 1492.05 63.5816 1490.05 63.5816C1488.05 63.5816 1486.25 63.8917 1484.65 64.5118C1483.04 65.1319 1481.76 66.031 1480.82 67.2092C1479.87 68.3873 1479.4 69.8445 1479.4 71.5808C1479.4 73.286 1479.86 74.7277 1480.77 75.9059C1481.67 77.084 1482.92 77.9832 1484.51 78.6033C1486.11 79.2233 1487.96 79.5334 1490.05 79.5334C1492.13 79.5334 1493.98 79.2233 1495.61 78.6033C1497.22 77.9832 1498.49 77.084 1499.42 75.9059C1500.35 74.7122 1500.81 73.2705 1500.81 71.5808ZM1468.35 55.7769L1503 55.7769L1503 58.7766L1468.35 58.7766L1468.35 55.7769ZM1503.56 42.1124C1503.56 44.5307 1502.99 46.6312 1501.86 48.414C1500.71 50.1967 1499.13 51.5687 1497.12 52.5298C1495.1 53.491 1492.78 53.9715 1490.16 53.9715C1487.54 53.9715 1485.22 53.4987 1483.19 52.5531C1481.16 51.5919 1479.56 50.2588 1478.4 48.5535C1477.24 46.8483 1476.65 44.8717 1476.65 42.6239C1476.65 41.2287 1476.92 39.8723 1477.44 38.5546C1477.96 37.2369 1478.74 36.051 1479.79 34.9969C1480.85 33.9427 1482.19 33.1133 1483.82 32.5088C1485.43 31.9042 1487.35 31.6019 1489.58 31.6019L1490.93 31.6019L1490.93 51.902L1488.28 51.902L1488.28 33.2296L1489.3 34.6016C1487.41 34.6016 1485.72 34.9271 1484.23 35.5782C1482.75 36.2138 1481.57 37.1284 1480.7 38.3221C1479.83 39.5157 1479.4 40.9497 1479.4 42.6239C1479.4 44.2827 1479.84 45.7399 1480.72 46.9955C1481.59 48.2512 1482.75 49.2279 1484.21 49.9255C1485.65 50.6076 1487.23 50.9486 1488.96 50.9486L1490.51 50.9486C1492.59 50.9486 1494.4 50.5921 1495.95 49.879C1497.49 49.1504 1498.68 48.1272 1499.54 46.8095C1500.39 45.4763 1500.81 43.9106 1500.81 42.1124C1500.81 40.8877 1500.62 39.8103 1500.23 38.8802C1499.85 37.95 1499.33 37.1672 1498.67 36.5316C1498.01 35.896 1497.29 35.4154 1496.51 35.0899L1497.47 32.2297C1498.55 32.6328 1499.56 33.2839 1500.49 34.183C1501.4 35.0666 1502.15 36.1828 1502.72 37.5315C1503.28 38.8647 1503.56 40.3916 1503.56 42.1124Z" fill="black"/>
<path d="M1866.57 144.095L1869.19 144.095L1869.19 156.861L1866.57 156.861L1866.57 144.095ZM1892.56 152.861L1862.78 152.861C1861.36 152.861 1860.19 152.535 1859.24 151.884C1858.28 151.233 1857.55 150.388 1857.05 149.35C1856.56 148.296 1856.31 147.187 1856.31 146.025C1856.31 145.218 1856.38 144.552 1856.52 144.025C1856.64 143.498 1856.78 143.087 1856.92 142.792L1859.54 143.676C1859.45 143.909 1859.36 144.188 1859.29 144.513C1859.19 144.823 1859.15 145.234 1859.15 145.746C1859.15 147.048 1859.52 148.063 1860.26 148.792C1861.01 149.52 1862.06 149.885 1863.43 149.885L1892.56 149.885L1892.56 152.861ZM1857.92 139.894L1892.56 139.894L1892.56 142.894L1857.92 142.894L1857.92 139.894ZM1893.12 126.648C1893.12 128.896 1892.55 130.88 1891.42 132.601C1890.28 134.322 1888.69 135.67 1886.68 136.647C1884.65 137.608 1882.32 138.089 1879.7 138.089C1877.04 138.089 1874.7 137.608 1872.68 136.647C1870.65 135.67 1869.07 134.322 1867.94 132.601C1866.79 130.88 1866.22 128.896 1866.22 126.648C1866.22 124.4 1866.79 122.424 1867.94 120.718C1869.07 118.998 1870.65 117.649 1872.68 116.672C1874.7 115.696 1877.04 115.207 1879.7 115.207C1882.32 115.207 1884.65 115.696 1886.68 116.672C1888.69 117.634 1890.28 118.974 1891.42 120.695C1892.55 122.416 1893.12 124.4 1893.12 126.648ZM1890.38 126.648C1890.38 124.834 1889.9 123.307 1888.93 122.067C1887.96 120.811 1886.66 119.858 1885.03 119.207C1883.4 118.556 1881.63 118.23 1879.7 118.23C1877.75 118.23 1875.96 118.556 1874.33 119.207C1872.7 119.858 1871.4 120.811 1870.43 122.067C1869.45 123.323 1868.96 124.85 1868.96 126.648C1868.96 128.446 1869.46 129.973 1870.45 131.229C1871.43 132.469 1872.73 133.423 1874.36 134.089C1875.97 134.74 1877.75 135.066 1879.7 135.066C1881.63 135.066 1883.4 134.74 1885.03 134.089C1886.66 133.438 1887.96 132.485 1888.93 131.229C1889.9 129.973 1890.38 128.446 1890.38 126.648ZM1892.56 108.542L1866.57 116.402L1866.57 113.216L1888 107.054L1888 106.821L1866.57 100.683L1866.57 97.4736L1887.98 91.4277L1887.98 91.1952L1866.57 85.0098L1866.57 81.8474L1892.56 89.6837L1892.56 92.7764L1871.29 98.9618L1871.29 99.2641L1892.56 105.449L1892.56 108.542ZM1893.12 71.136C1893.12 73.5543 1892.55 75.6549 1891.42 77.4376C1890.28 79.2204 1888.69 80.5923 1886.68 81.5534C1884.66 82.5146 1882.35 82.9952 1879.73 82.9952C1877.11 82.9952 1874.78 82.5223 1872.75 81.5767C1870.72 80.6156 1869.12 79.2824 1867.96 77.5771C1866.8 75.8719 1866.22 73.8954 1866.22 71.6476C1866.22 70.2524 1866.48 68.8959 1867.01 67.5782C1867.52 66.2605 1868.3 65.0746 1869.36 64.0205C1870.41 62.9663 1871.75 62.137 1873.38 61.5324C1874.99 60.9278 1876.91 60.6255 1879.15 60.6255L1880.49 60.6255L1880.49 80.9256L1877.84 80.9256L1877.84 62.2532L1878.87 63.6252C1876.98 63.6252 1875.29 63.9507 1873.8 64.6018C1872.31 65.2374 1871.13 66.152 1870.26 67.3457C1869.39 68.5394 1868.96 69.9733 1868.96 71.6476C1868.96 73.3063 1869.4 74.7635 1870.29 76.0192C1871.15 77.2748 1872.32 78.2515 1873.77 78.9491C1875.22 79.6312 1876.8 79.9722 1878.52 79.9722L1880.08 79.9722C1882.15 79.9722 1883.97 79.6157 1885.52 78.9026C1887.05 78.174 1888.25 77.1508 1889.1 75.8331C1889.95 74.5 1890.38 72.9342 1890.38 71.136C1890.38 69.9113 1890.18 68.8339 1889.8 67.9038C1889.41 66.9736 1888.89 66.1908 1888.24 65.5552C1887.57 64.9196 1886.85 64.439 1886.07 64.1135L1887.03 61.2533C1888.11 61.6564 1889.12 62.3075 1890.05 63.2066C1890.97 64.0902 1891.71 65.2064 1892.28 66.5551C1892.84 67.8883 1893.12 69.4152 1893.12 71.136ZM1892.56 58.9364L1866.57 58.9364L1866.57 56.0297L1870.59 56.0297L1870.59 55.7972C1869.27 55.2701 1868.22 54.3632 1867.43 53.0766C1866.62 51.7744 1866.22 50.3094 1866.22 48.6817C1866.22 48.4336 1866.22 48.1624 1866.22 47.8678C1866.22 47.5578 1866.22 47.302 1866.24 47.1005L1869.29 47.1005C1869.27 47.2245 1869.25 47.457 1869.22 47.7981C1869.17 48.1391 1869.15 48.5189 1869.15 48.9375C1869.15 50.2707 1869.43 51.4721 1870.01 52.5417C1870.58 53.5959 1871.37 54.4252 1872.38 55.0298C1873.37 55.6344 1874.51 55.9367 1875.8 55.9367L1892.56 55.9367L1892.56 58.9364ZM1872.31 29.3433L1873.05 32.0872C1871.89 32.4903 1870.91 33.1646 1870.1 34.1103C1869.28 35.0404 1868.87 36.3813 1868.87 38.1331C1868.87 39.8848 1869.29 41.3265 1870.15 42.4582C1870.98 43.5898 1872.06 44.1557 1873.38 44.1557C1874.48 44.1557 1875.39 43.7759 1876.1 43.0163C1876.8 42.2411 1877.35 41.0475 1877.75 39.4353L1878.7 35.5054C1879.25 33.3351 1880.09 31.7074 1881.24 30.6223C1882.37 29.5216 1883.8 28.9713 1885.54 28.9713C1887 28.9713 1888.3 29.3821 1889.45 30.2037C1890.59 31.0098 1891.49 32.1337 1892.14 33.5754C1892.8 35.0171 1893.12 36.6914 1893.12 38.5981C1893.12 41.1405 1892.55 43.2333 1891.4 44.8765C1890.24 46.5198 1888.58 47.5739 1886.42 48.039L1885.73 45.1556C1887.26 44.799 1888.42 44.0704 1889.21 42.9698C1890 41.8691 1890.4 40.4274 1890.4 38.6446C1890.4 36.6604 1889.95 35.0636 1889.05 33.8545C1888.15 32.6453 1887.04 32.0407 1885.7 32.0407C1883.56 32.0407 1882.15 33.4592 1881.45 36.2961L1880.42 40.5282C1879.88 42.7915 1879.03 44.4657 1877.87 45.5509C1876.7 46.636 1875.25 47.1786 1873.52 47.1786C1872.09 47.1786 1870.83 46.791 1869.73 46.0159C1868.63 45.2253 1867.77 44.1479 1867.15 42.7837C1866.53 41.4195 1866.22 39.8693 1866.22 38.1331C1866.22 35.7457 1866.77 33.839 1867.87 32.4128C1868.95 30.9866 1870.43 29.9634 1872.31 29.3433Z" fill="black"/>
<path d="M2256.13 143.56L2258.76 143.56L2258.76 155.954L2256.13 155.954L2256.13 143.56ZM2249.94 152.07L2249.94 149.071L2275.34 149.071C2276.75 149.071 2277.81 148.722 2278.52 148.024C2279.22 147.327 2279.57 146.358 2279.57 145.118C2279.57 144.839 2279.55 144.559 2279.52 144.28C2279.47 143.986 2279.41 143.676 2279.33 143.35L2282.06 142.699C2282.19 143.056 2282.3 143.467 2282.38 143.932C2282.46 144.397 2282.5 144.877 2282.5 145.373C2282.5 147.296 2281.91 148.892 2280.73 150.164C2279.54 151.435 2277.98 152.07 2276.06 152.07L2249.94 152.07ZM2282.68 131.29C2282.68 133.709 2282.12 135.809 2280.99 137.592C2279.84 139.375 2278.26 140.747 2276.24 141.708C2274.23 142.669 2271.91 143.149 2269.29 143.149C2266.67 143.149 2264.34 142.677 2262.31 141.731C2260.28 140.77 2258.69 139.437 2257.52 137.731C2256.36 136.026 2255.78 134.05 2255.78 131.802C2255.78 130.407 2256.04 129.05 2256.57 127.732C2257.08 126.415 2257.86 125.229 2258.92 124.175C2259.97 123.121 2261.31 122.291 2262.94 121.687C2264.55 121.082 2266.48 120.78 2268.71 120.78L2270.06 120.78L2270.06 141.08L2267.41 141.08L2267.41 122.407L2268.43 123.779C2266.54 123.779 2264.85 124.105 2263.36 124.756C2261.87 125.392 2260.69 126.306 2259.83 127.5C2258.96 128.694 2258.52 130.128 2258.52 131.802C2258.52 133.461 2258.96 134.918 2259.85 136.173C2260.72 137.429 2261.88 138.406 2263.34 139.103C2264.78 139.785 2266.36 140.126 2268.08 140.126L2269.64 140.126C2271.72 140.126 2273.53 139.77 2275.08 139.057C2276.61 138.328 2277.81 137.305 2278.66 135.987C2279.51 134.654 2279.94 133.088 2279.94 131.29C2279.94 130.066 2279.75 128.988 2279.36 128.058C2278.97 127.128 2278.45 126.345 2277.8 125.709C2277.13 125.074 2276.41 124.593 2275.64 124.268L2276.59 121.408C2277.68 121.811 2278.68 122.462 2279.61 123.361C2280.53 124.244 2281.27 125.361 2281.85 126.709C2282.4 128.043 2282.68 129.57 2282.68 131.29ZM2282.68 108.952C2282.68 111.278 2282.1 113.301 2280.94 115.021C2279.78 116.742 2278.19 118.075 2276.17 119.021C2274.14 119.967 2271.84 120.439 2269.27 120.439C2266.65 120.439 2264.33 119.959 2262.31 118.998C2260.28 118.036 2258.69 116.696 2257.52 114.975C2256.36 113.254 2255.78 111.262 2255.78 108.999C2255.78 107.262 2256.12 105.689 2256.8 104.278C2257.47 102.868 2258.41 101.705 2259.64 100.79C2260.85 99.8602 2262.26 99.2788 2263.87 99.0463L2263.87 102.069C2262.89 102.286 2262 102.705 2261.2 103.325C2260.39 103.93 2259.75 104.712 2259.27 105.674C2258.77 106.619 2258.52 107.712 2258.52 108.952C2258.52 110.611 2258.97 112.076 2259.87 113.347C2260.77 114.618 2262.02 115.618 2263.62 116.347C2265.21 117.06 2267.06 117.416 2269.17 117.416C2271.27 117.416 2273.13 117.068 2274.75 116.37C2276.38 115.672 2277.65 114.688 2278.57 113.417C2279.48 112.13 2279.94 110.642 2279.94 108.952C2279.94 107.231 2279.45 105.743 2278.47 104.488C2277.5 103.232 2276.19 102.426 2274.54 102.069L2274.54 99.0463C2276.11 99.2633 2277.51 99.8214 2278.73 100.721C2279.95 101.604 2280.92 102.751 2281.64 104.162C2282.33 105.557 2282.68 107.154 2282.68 108.952ZM2265.89 94.3575L2282.12 94.3575L2282.12 97.3572L2247.48 97.3572L2247.48 94.3575L2260.24 94.3575L2260.24 94.0552C2258.89 93.4506 2257.82 92.5128 2257.01 91.2416C2256.21 89.9704 2255.8 88.3504 2255.8 86.3817C2255.8 84.6299 2256.17 83.0874 2256.9 81.7542C2257.61 80.4211 2258.67 79.3824 2260.08 78.6383C2261.49 77.8787 2263.24 77.4989 2265.31 77.4989L2282.12 77.4989L2282.12 80.5218L2265.5 80.5218C2263.34 80.5218 2261.65 81.1264 2260.41 82.3356C2259.17 83.5292 2258.55 85.1415 2258.55 87.1723C2258.55 88.552 2258.85 89.7844 2259.45 90.8695C2260.04 91.9392 2260.89 92.7918 2261.99 93.4274C2263.07 94.0475 2264.37 94.3575 2265.89 94.3575ZM2265.89 71.3684L2282.12 71.3684L2282.12 74.3681L2256.13 74.3681L2256.13 71.4614L2260.24 71.4614L2260.24 71.1591C2258.89 70.5545 2257.82 69.6089 2257.01 68.3222C2256.21 67.0355 2255.8 65.4388 2255.8 63.532C2255.8 61.7803 2256.17 60.2456 2256.9 58.9279C2257.62 57.5947 2258.69 56.5561 2260.1 55.812C2261.51 55.0679 2263.25 54.6958 2265.31 54.6958L2282.12 54.6958L2282.12 57.6955L2265.5 57.6955C2263.38 57.6955 2261.69 58.2923 2260.43 59.486C2259.17 60.6796 2258.55 62.2764 2258.55 64.2762C2258.55 65.6403 2258.85 66.8573 2259.45 67.9269C2260.04 68.9966 2260.89 69.8414 2261.99 70.4615C2263.07 71.0661 2264.37 71.3684 2265.89 71.3684ZM2282.68 41.4731C2282.68 43.7209 2282.12 45.7052 2280.99 47.4259C2279.84 49.1466 2278.26 50.4953 2276.24 51.472C2274.21 52.4331 2271.89 52.9137 2269.27 52.9137C2266.6 52.9137 2264.26 52.4331 2262.24 51.472C2260.21 50.4953 2258.63 49.1466 2257.5 47.4259C2256.35 45.7052 2255.78 43.7209 2255.78 41.4731C2255.78 39.2252 2256.35 37.2487 2257.5 35.5435C2258.63 33.8227 2260.21 32.474 2262.24 31.4974C2264.26 30.5208 2266.6 30.0324 2269.27 30.0324C2271.89 30.0324 2274.21 30.5208 2276.24 31.4974C2278.26 32.4585 2279.84 33.7995 2280.99 35.5202C2282.12 37.241 2282.68 39.2252 2282.68 41.4731ZM2279.94 41.4731C2279.94 39.6593 2279.46 38.1323 2278.5 36.8922C2277.52 35.6365 2276.22 34.6831 2274.59 34.032C2272.96 33.3809 2271.19 33.0554 2269.27 33.0554C2267.31 33.0554 2265.52 33.3809 2263.89 34.032C2262.27 34.6831 2260.96 35.6365 2259.99 36.8922C2259.01 38.1478 2258.52 39.6748 2258.52 41.4731C2258.52 43.2713 2259.02 44.7983 2260.01 46.054C2260.99 47.2941 2262.29 48.2475 2263.92 48.9141C2265.53 49.5652 2267.31 49.8907 2269.27 49.8907C2271.19 49.8907 2272.96 49.5652 2274.59 48.9141C2276.22 48.263 2277.52 47.3096 2278.5 46.054C2279.46 44.7983 2279.94 43.2713 2279.94 41.4731Z" fill="black"/>
<path d="M2688.72 152.268L2653 152.268L2653 149.361L2657.98 149.361L2657.98 149.012C2657.2 148.656 2656.41 148.16 2655.58 147.524C2654.76 146.889 2654.07 146.044 2653.51 144.99C2652.94 143.935 2652.65 142.618 2652.65 141.036C2652.65 138.897 2653.22 137.029 2654.35 135.432C2655.47 133.82 2657.03 132.565 2659.05 131.665C2661.06 130.766 2663.4 130.317 2666.07 130.317C2668.75 130.317 2671.11 130.766 2673.14 131.665C2675.17 132.549 2676.75 133.797 2677.88 135.409C2679 137.006 2679.56 138.874 2679.56 141.013C2679.56 142.579 2679.28 143.897 2678.72 144.966C2678.15 146.02 2677.44 146.873 2676.6 147.524C2675.77 148.16 2674.95 148.656 2674.16 149.012L2674.16 149.268L2688.72 149.268L2688.72 152.268ZM2676.81 141.339C2676.81 139.634 2676.33 138.184 2675.37 136.99C2674.41 135.797 2673.12 134.89 2671.49 134.27C2669.86 133.65 2668.05 133.34 2666.05 133.34C2664.05 133.34 2662.25 133.65 2660.65 134.27C2659.04 134.89 2657.76 135.789 2656.82 136.967C2655.87 138.145 2655.4 139.603 2655.4 141.339C2655.4 143.044 2655.86 144.486 2656.77 145.664C2657.67 146.842 2658.92 147.741 2660.51 148.361C2662.11 148.981 2663.96 149.291 2666.05 149.291C2668.13 149.291 2669.98 148.981 2671.61 148.361C2673.22 147.741 2674.49 146.842 2675.42 145.664C2676.35 144.47 2676.81 143.028 2676.81 141.339ZM2679.56 118.024C2679.56 120.442 2678.99 122.543 2677.86 124.326C2676.71 126.108 2675.13 127.48 2673.12 128.442C2671.1 129.403 2668.78 129.883 2666.16 129.883C2663.54 129.883 2661.22 129.41 2659.19 128.465C2657.16 127.504 2655.56 126.17 2654.4 124.465C2653.24 122.76 2652.65 120.783 2652.65 118.536C2652.65 117.14 2652.92 115.784 2653.44 114.466C2653.96 113.149 2654.74 111.963 2655.79 110.909C2656.85 109.854 2658.19 109.025 2659.82 108.42C2661.43 107.816 2663.35 107.514 2665.58 107.514L2666.93 107.514L2666.93 127.814L2664.28 127.814L2664.28 109.141L2665.3 110.513C2663.41 110.513 2661.72 110.839 2660.23 111.49C2658.75 112.126 2657.57 113.04 2656.7 114.234C2655.83 115.427 2655.4 116.861 2655.4 118.536C2655.4 120.194 2655.84 121.652 2656.72 122.907C2657.59 124.163 2658.75 125.14 2660.21 125.837C2661.65 126.519 2663.23 126.86 2664.96 126.86L2666.51 126.86C2668.59 126.86 2670.4 126.504 2671.95 125.791C2673.49 125.062 2674.68 124.039 2675.54 122.721C2676.39 121.388 2676.81 119.822 2676.81 118.024C2676.81 116.799 2676.62 115.722 2676.23 114.792C2675.85 113.862 2675.33 113.079 2674.67 112.443C2674.01 111.808 2673.29 111.327 2672.51 111.002L2673.47 108.141C2674.55 108.544 2675.56 109.196 2676.49 110.095C2677.4 110.978 2678.15 112.094 2678.72 113.443C2679.28 114.776 2679.56 116.303 2679.56 118.024ZM2679.56 95.7326C2679.56 97.9804 2678.99 99.9647 2677.86 101.685C2676.71 103.406 2675.13 104.755 2673.12 105.731C2671.09 106.693 2668.76 107.173 2666.14 107.173C2663.47 107.173 2661.13 106.693 2659.12 105.731C2657.09 104.755 2655.51 103.406 2654.37 101.685C2653.23 99.9647 2652.65 97.9804 2652.65 95.7326C2652.65 93.4847 2653.23 91.5082 2654.37 89.803C2655.51 88.0822 2657.09 86.7335 2659.12 85.7569C2661.13 84.7803 2663.47 84.2919 2666.14 84.2919C2668.76 84.2919 2671.09 84.7803 2673.12 85.7569C2675.13 86.718 2676.71 88.059 2677.86 89.7797C2678.99 91.5005 2679.56 93.4847 2679.56 95.7326ZM2676.81 95.7326C2676.81 93.9188 2676.33 92.3918 2675.37 91.1517C2674.4 89.896 2673.09 88.9426 2671.47 88.2915C2669.84 87.6404 2668.06 87.3149 2666.14 87.3149C2664.19 87.3149 2662.4 87.6404 2660.77 88.2915C2659.14 88.9426 2657.84 89.896 2656.86 91.1517C2655.89 92.4073 2655.4 93.9343 2655.4 95.7326C2655.4 97.5308 2655.89 99.0578 2656.89 100.313C2657.86 101.554 2659.16 102.507 2660.79 103.174C2662.4 103.825 2664.19 104.15 2666.14 104.15C2668.06 104.15 2669.84 103.825 2671.47 103.174C2673.09 102.523 2674.4 101.569 2675.37 100.313C2676.33 99.0578 2676.81 97.5308 2676.81 95.7326ZM2688.72 82.5098L2653 82.5098L2653 79.6032L2657.98 79.6032L2657.98 79.2544C2657.2 78.8978 2656.41 78.4017 2655.58 77.7661C2654.76 77.1306 2654.07 76.2857 2653.51 75.2315C2652.94 74.1774 2652.65 72.8597 2652.65 71.2785C2652.65 69.1392 2653.22 67.2712 2654.35 65.6744C2655.47 64.0622 2657.03 62.8065 2659.05 61.9074C2661.06 61.0083 2663.4 60.5587 2666.07 60.5587C2668.75 60.5587 2671.11 61.0083 2673.14 61.9074C2675.17 62.791 2676.75 64.039 2677.88 65.6512C2679 67.2479 2679.56 69.1159 2679.56 71.2552C2679.56 72.8209 2679.28 74.1386 2678.72 75.2083C2678.15 76.2624 2677.44 77.1151 2676.6 77.7661C2675.77 78.4017 2674.95 78.8978 2674.16 79.2544L2674.16 79.5101L2688.72 79.5101L2688.72 82.5098ZM2676.81 71.5808C2676.81 69.8755 2676.33 68.4261 2675.37 67.2324C2674.41 66.0387 2673.12 65.1319 2671.49 64.5118C2669.86 63.8917 2668.05 63.5816 2666.05 63.5816C2664.05 63.5816 2662.25 63.8917 2660.65 64.5118C2659.04 65.1319 2657.76 66.031 2656.82 67.2092C2655.87 68.3873 2655.4 69.8445 2655.4 71.5808C2655.4 73.286 2655.86 74.7277 2656.77 75.9059C2657.67 77.084 2658.92 77.9832 2660.51 78.6033C2662.11 79.2233 2663.96 79.5334 2666.05 79.5334C2668.13 79.5334 2669.98 79.2233 2671.61 78.6033C2673.22 77.9832 2674.49 77.084 2675.42 75.9059C2676.35 74.7122 2676.81 73.2705 2676.81 71.5808ZM2644.35 55.7769L2679 55.7769L2679 58.7766L2644.35 58.7766L2644.35 55.7769ZM2679.56 42.1124C2679.56 44.5307 2678.99 46.6312 2677.86 48.414C2676.71 50.1967 2675.13 51.5687 2673.12 52.5298C2671.1 53.491 2668.78 53.9715 2666.16 53.9715C2663.54 53.9715 2661.22 53.4987 2659.19 52.5531C2657.16 51.5919 2655.56 50.2588 2654.4 48.5535C2653.24 46.8483 2652.65 44.8717 2652.65 42.6239C2652.65 41.2287 2652.92 39.8723 2653.44 38.5546C2653.96 37.2369 2654.74 36.051 2655.79 34.9969C2656.85 33.9427 2658.19 33.1133 2659.82 32.5088C2661.43 31.9042 2663.35 31.6019 2665.58 31.6019L2666.93 31.6019L2666.93 51.902L2664.28 51.902L2664.28 33.2296L2665.3 34.6016C2663.41 34.6016 2661.72 34.9271 2660.23 35.5782C2658.75 36.2138 2657.57 37.1284 2656.7 38.3221C2655.83 39.5157 2655.4 40.9497 2655.4 42.6239C2655.4 44.2827 2655.84 45.7399 2656.72 46.9955C2657.59 48.2512 2658.75 49.2279 2660.21 49.9255C2661.65 50.6076 2663.23 50.9486 2664.96 50.9486L2666.51 50.9486C2668.59 50.9486 2670.4 50.5921 2671.95 49.879C2673.49 49.1504 2674.68 48.1272 2675.54 46.8095C2676.39 45.4763 2676.81 43.9106 2676.81 42.1124C2676.81 40.8877 2676.62 39.8103 2676.23 38.8802C2675.85 37.95 2675.33 37.1672 2674.67 36.5316C2674.01 35.896 2673.29 35.4154 2672.51 35.0899L2673.47 32.2297C2674.55 32.6328 2675.56 33.2839 2676.49 34.183C2677.4 35.0666 2678.15 36.1828 2678.72 37.5315C2679.28 38.8647 2679.56 40.3916 2679.56 42.1124Z" fill="black"/>
<path d="M3042.57 144.095L3045.19 144.095L3045.19 156.861L3042.57 156.861L3042.57 144.095ZM3068.56 152.861L3038.78 152.861C3037.36 152.861 3036.19 152.535 3035.24 151.884C3034.28 151.233 3033.55 150.388 3033.05 149.35C3032.56 148.296 3032.31 147.187 3032.31 146.025C3032.31 145.218 3032.38 144.552 3032.52 144.025C3032.64 143.498 3032.78 143.087 3032.92 142.792L3035.54 143.676C3035.45 143.909 3035.36 144.188 3035.29 144.513C3035.19 144.823 3035.15 145.234 3035.15 145.746C3035.15 147.048 3035.52 148.063 3036.26 148.792C3037.01 149.52 3038.06 149.885 3039.43 149.885L3068.56 149.885L3068.56 152.861ZM3033.92 139.894L3068.56 139.894L3068.56 142.894L3033.92 142.894L3033.92 139.894ZM3069.12 126.648C3069.12 128.896 3068.55 130.88 3067.42 132.601C3066.28 134.322 3064.69 135.67 3062.68 136.647C3060.65 137.608 3058.32 138.089 3055.7 138.089C3053.04 138.089 3050.7 137.608 3048.68 136.647C3046.65 135.67 3045.07 134.322 3043.94 132.601C3042.79 130.88 3042.22 128.896 3042.22 126.648C3042.22 124.4 3042.79 122.424 3043.94 120.718C3045.07 118.998 3046.65 117.649 3048.68 116.672C3050.7 115.696 3053.04 115.207 3055.7 115.207C3058.32 115.207 3060.65 115.696 3062.68 116.672C3064.69 117.634 3066.28 118.974 3067.42 120.695C3068.55 122.416 3069.12 124.4 3069.12 126.648ZM3066.38 126.648C3066.38 124.834 3065.9 123.307 3064.93 122.067C3063.96 120.811 3062.66 119.858 3061.03 119.207C3059.4 118.556 3057.63 118.23 3055.7 118.23C3053.75 118.23 3051.96 118.556 3050.33 119.207C3048.7 119.858 3047.4 120.811 3046.43 122.067C3045.45 123.323 3044.96 124.85 3044.96 126.648C3044.96 128.446 3045.46 129.973 3046.45 131.229C3047.43 132.469 3048.73 133.423 3050.36 134.089C3051.97 134.74 3053.75 135.066 3055.7 135.066C3057.63 135.066 3059.4 134.74 3061.03 134.089C3062.66 133.438 3063.96 132.485 3064.93 131.229C3065.9 129.973 3066.38 128.446 3066.38 126.648ZM3068.56 108.542L3042.57 116.402L3042.57 113.216L3064 107.054L3064 106.821L3042.57 100.683L3042.57 97.4736L3063.98 91.4277L3063.98 91.1952L3042.57 85.0098L3042.57 81.8474L3068.56 89.6837L3068.56 92.7764L3047.29 98.9618L3047.29 99.2641L3068.56 105.449L3068.56 108.542ZM3069.12 71.136C3069.12 73.5543 3068.55 75.6549 3067.42 77.4376C3066.28 79.2204 3064.69 80.5923 3062.68 81.5534C3060.66 82.5146 3058.35 82.9952 3055.73 82.9952C3053.11 82.9952 3050.78 82.5223 3048.75 81.5767C3046.72 80.6156 3045.12 79.2824 3043.96 77.5771C3042.8 75.8719 3042.22 73.8954 3042.22 71.6476C3042.22 70.2524 3042.48 68.8959 3043.01 67.5782C3043.52 66.2605 3044.3 65.0746 3045.36 64.0205C3046.41 62.9663 3047.75 62.137 3049.38 61.5324C3050.99 60.9278 3052.91 60.6255 3055.15 60.6255L3056.49 60.6255L3056.49 80.9256L3053.84 80.9256L3053.84 62.2532L3054.87 63.6252C3052.98 63.6252 3051.29 63.9507 3049.8 64.6018C3048.31 65.2374 3047.13 66.152 3046.26 67.3457C3045.39 68.5394 3044.96 69.9733 3044.96 71.6476C3044.96 73.3063 3045.4 74.7635 3046.29 76.0192C3047.15 77.2748 3048.32 78.2515 3049.77 78.9491C3051.22 79.6312 3052.8 79.9722 3054.52 79.9722L3056.08 79.9722C3058.15 79.9722 3059.97 79.6157 3061.52 78.9026C3063.05 78.174 3064.25 77.1508 3065.1 75.8331C3065.95 74.5 3066.38 72.9342 3066.38 71.136C3066.38 69.9113 3066.18 68.8339 3065.8 67.9038C3065.41 66.9736 3064.89 66.1908 3064.24 65.5552C3063.57 64.9196 3062.85 64.439 3062.07 64.1135L3063.03 61.2533C3064.11 61.6564 3065.12 62.3075 3066.05 63.2066C3066.97 64.0902 3067.71 65.2064 3068.28 66.5551C3068.84 67.8883 3069.12 69.4152 3069.12 71.136ZM3068.56 58.9364L3042.57 58.9364L3042.57 56.0297L3046.59 56.0297L3046.59 55.7972C3045.27 55.2701 3044.22 54.3632 3043.43 53.0766C3042.62 51.7744 3042.22 50.3094 3042.22 48.6817C3042.22 48.4336 3042.22 48.1624 3042.22 47.8678C3042.22 47.5578 3042.22 47.302 3042.24 47.1005L3045.29 47.1005C3045.27 47.2245 3045.25 47.457 3045.22 47.7981C3045.17 48.1391 3045.15 48.5189 3045.15 48.9375C3045.15 50.2707 3045.43 51.4721 3046.01 52.5417C3046.58 53.5959 3047.37 54.4252 3048.38 55.0298C3049.37 55.6344 3050.51 55.9367 3051.8 55.9367L3068.56 55.9367L3068.56 58.9364ZM3048.31 29.3433L3049.05 32.0872C3047.89 32.4903 3046.91 33.1646 3046.1 34.1103C3045.28 35.0404 3044.87 36.3813 3044.87 38.1331C3044.87 39.8848 3045.29 41.3265 3046.15 42.4582C3046.98 43.5898 3048.06 44.1557 3049.38 44.1557C3050.48 44.1557 3051.39 43.7759 3052.1 43.0163C3052.8 42.2411 3053.35 41.0475 3053.75 39.4353L3054.7 35.5054C3055.25 33.3351 3056.09 31.7074 3057.24 30.6223C3058.37 29.5216 3059.8 28.9713 3061.54 28.9713C3063 28.9713 3064.3 29.3821 3065.45 30.2037C3066.59 31.0098 3067.49 32.1337 3068.14 33.5754C3068.8 35.0171 3069.12 36.6914 3069.12 38.5981C3069.12 41.1405 3068.55 43.2333 3067.4 44.8765C3066.24 46.5198 3064.58 47.5739 3062.42 48.039L3061.73 45.1556C3063.26 44.799 3064.42 44.0704 3065.21 42.9698C3066 41.8691 3066.4 40.4274 3066.4 38.6446C3066.4 36.6604 3065.95 35.0636 3065.05 33.8545C3064.15 32.6453 3063.04 32.0407 3061.7 32.0407C3059.56 32.0407 3058.15 33.4592 3057.45 36.2961L3056.42 40.5282C3055.88 42.7915 3055.03 44.4657 3053.87 45.5509C3052.7 46.636 3051.25 47.1786 3049.52 47.1786C3048.09 47.1786 3046.83 46.791 3045.73 46.0159C3044.63 45.2253 3043.77 44.1479 3043.15 42.7837C3042.53 41.4195 3042.22 39.8693 3042.22 38.1331C3042.22 35.7457 3042.77 33.839 3043.87 32.4128C3044.95 30.9866 3046.43 29.9634 3048.31 29.3433Z" fill="black"/>
</g>
<defs>
<clipPath id="clip0_991_126">
<rect width="3397" height="180" fill="white"/>
</clipPath>
</defs>
</svg>
